<mxfile host="app.diagrams.net" agent="Mozilla/5.0 (X11; Linux x86_64; rv:126.0) Gecko/20100101 Firefox/126.0" version="24.8.3">
  <diagram name="Page-1" id="8m1BEVrsNjeZCzld3D-R">
    <mxGraphModel dx="1418" dy="738" grid="1" gridSize="10" guides="1" tooltips="1" connect="1" arrows="1" fold="1" page="1" pageScale="1" pageWidth="850" pageHeight="1100" math="0" shadow="0">
      <root>
        <mxCell id="0" />
        <mxCell id="1" parent="0" />
        <mxCell id="CMmYyxB9AxRojB-h8BCf-18" value="User" style="shape=table;startSize=30;container=1;collapsible=1;childLayout=tableLayout;fixedRows=1;rowLines=0;fontStyle=1;align=center;resizeLast=1;html=1;fillColor=#f8cecc;strokeColor=#b85450;" parent="1" vertex="1">
          <mxGeometry x="293" y="60" width="300" height="260" as="geometry" />
        </mxCell>
        <mxCell id="CMmYyxB9AxRojB-h8BCf-19" value="" style="shape=tableRow;horizontal=0;startSize=0;swimlaneHead=0;swimlaneBody=0;fillColor=none;collapsible=0;dropTarget=0;points=[[0,0.5],[1,0.5]];portConstraint=eastwest;top=0;left=0;right=0;bottom=1;" parent="CMmYyxB9AxRojB-h8BCf-18" vertex="1">
          <mxGeometry y="30" width="300" height="30" as="geometry" />
        </mxCell>
        <mxCell id="CMmYyxB9AxRojB-h8BCf-20" value="PK" style="shape=partialRectangle;connectable=0;fillColor=none;top=0;left=0;bottom=0;right=0;fontStyle=1;overflow=hidden;whiteSpace=wrap;html=1;" parent="CMmYyxB9AxRojB-h8BCf-19" vertex="1">
          <mxGeometry width="30" height="30" as="geometry">
            <mxRectangle width="30" height="30" as="alternateBounds" />
          </mxGeometry>
        </mxCell>
        <mxCell id="CMmYyxB9AxRojB-h8BCf-21" value="UserID: INTEGER" style="shape=partialRectangle;connectable=0;fillColor=none;top=0;left=0;bottom=0;right=0;align=left;spacingLeft=6;fontStyle=5;overflow=hidden;whiteSpace=wrap;html=1;" parent="CMmYyxB9AxRojB-h8BCf-19" vertex="1">
          <mxGeometry x="30" width="270" height="30" as="geometry">
            <mxRectangle width="270" height="30" as="alternateBounds" />
          </mxGeometry>
        </mxCell>
        <mxCell id="CMmYyxB9AxRojB-h8BCf-22" value="" style="shape=tableRow;horizontal=0;startSize=0;swimlaneHead=0;swimlaneBody=0;fillColor=none;collapsible=0;dropTarget=0;points=[[0,0.5],[1,0.5]];portConstraint=eastwest;top=0;left=0;right=0;bottom=0;" parent="CMmYyxB9AxRojB-h8BCf-18" vertex="1">
          <mxGeometry y="60" width="300" height="30" as="geometry" />
        </mxCell>
        <mxCell id="CMmYyxB9AxRojB-h8BCf-23" value="" style="shape=partialRectangle;connectable=0;fillColor=none;top=0;left=0;bottom=0;right=0;editable=1;overflow=hidden;whiteSpace=wrap;html=1;" parent="CMmYyxB9AxRojB-h8BCf-22" vertex="1">
          <mxGeometry width="30" height="30" as="geometry">
            <mxRectangle width="30" height="30" as="alternateBounds" />
          </mxGeometry>
        </mxCell>
        <mxCell id="CMmYyxB9AxRojB-h8BCf-24" value="FirstName: TEXT: NOT NULL" style="shape=partialRectangle;connectable=0;fillColor=none;top=0;left=0;bottom=0;right=0;align=left;spacingLeft=6;overflow=hidden;whiteSpace=wrap;html=1;" parent="CMmYyxB9AxRojB-h8BCf-22" vertex="1">
          <mxGeometry x="30" width="270" height="30" as="geometry">
            <mxRectangle width="270" height="30" as="alternateBounds" />
          </mxGeometry>
        </mxCell>
        <mxCell id="CMmYyxB9AxRojB-h8BCf-25" value="" style="shape=tableRow;horizontal=0;startSize=0;swimlaneHead=0;swimlaneBody=0;fillColor=none;collapsible=0;dropTarget=0;points=[[0,0.5],[1,0.5]];portConstraint=eastwest;top=0;left=0;right=0;bottom=0;" parent="CMmYyxB9AxRojB-h8BCf-18" vertex="1">
          <mxGeometry y="90" width="300" height="30" as="geometry" />
        </mxCell>
        <mxCell id="CMmYyxB9AxRojB-h8BCf-26" value="" style="shape=partialRectangle;connectable=0;fillColor=none;top=0;left=0;bottom=0;right=0;editable=1;overflow=hidden;whiteSpace=wrap;html=1;" parent="CMmYyxB9AxRojB-h8BCf-25" vertex="1">
          <mxGeometry width="30" height="30" as="geometry">
            <mxRectangle width="30" height="30" as="alternateBounds" />
          </mxGeometry>
        </mxCell>
        <mxCell id="CMmYyxB9AxRojB-h8BCf-27" value="LastName: TEXT: NOT NULL" style="shape=partialRectangle;connectable=0;fillColor=none;top=0;left=0;bottom=0;right=0;align=left;spacingLeft=6;overflow=hidden;whiteSpace=wrap;html=1;" parent="CMmYyxB9AxRojB-h8BCf-25" vertex="1">
          <mxGeometry x="30" width="270" height="30" as="geometry">
            <mxRectangle width="270" height="30" as="alternateBounds" />
          </mxGeometry>
        </mxCell>
        <mxCell id="2dNWp42R9KnTXTzvP6k_-2" value="" style="shape=tableRow;horizontal=0;startSize=0;swimlaneHead=0;swimlaneBody=0;fillColor=none;collapsible=0;dropTarget=0;points=[[0,0.5],[1,0.5]];portConstraint=eastwest;top=0;left=0;right=0;bottom=0;" parent="CMmYyxB9AxRojB-h8BCf-18" vertex="1">
          <mxGeometry y="120" width="300" height="30" as="geometry" />
        </mxCell>
        <mxCell id="2dNWp42R9KnTXTzvP6k_-3" value="" style="shape=partialRectangle;connectable=0;fillColor=none;top=0;left=0;bottom=0;right=0;editable=1;overflow=hidden;whiteSpace=wrap;html=1;" parent="2dNWp42R9KnTXTzvP6k_-2" vertex="1">
          <mxGeometry width="30" height="30" as="geometry">
            <mxRectangle width="30" height="30" as="alternateBounds" />
          </mxGeometry>
        </mxCell>
        <mxCell id="2dNWp42R9KnTXTzvP6k_-4" value="UserName: TEXT: UNIQUE: NOT NULL" style="shape=partialRectangle;connectable=0;fillColor=none;top=0;left=0;bottom=0;right=0;align=left;spacingLeft=6;overflow=hidden;whiteSpace=wrap;html=1;" parent="2dNWp42R9KnTXTzvP6k_-2" vertex="1">
          <mxGeometry x="30" width="270" height="30" as="geometry">
            <mxRectangle width="270" height="30" as="alternateBounds" />
          </mxGeometry>
        </mxCell>
        <mxCell id="2dNWp42R9KnTXTzvP6k_-5" value="" style="shape=tableRow;horizontal=0;startSize=0;swimlaneHead=0;swimlaneBody=0;fillColor=none;collapsible=0;dropTarget=0;points=[[0,0.5],[1,0.5]];portConstraint=eastwest;top=0;left=0;right=0;bottom=0;" parent="CMmYyxB9AxRojB-h8BCf-18" vertex="1">
          <mxGeometry y="150" width="300" height="30" as="geometry" />
        </mxCell>
        <mxCell id="2dNWp42R9KnTXTzvP6k_-6" value="" style="shape=partialRectangle;connectable=0;fillColor=none;top=0;left=0;bottom=0;right=0;editable=1;overflow=hidden;whiteSpace=wrap;html=1;" parent="2dNWp42R9KnTXTzvP6k_-5" vertex="1">
          <mxGeometry width="30" height="30" as="geometry">
            <mxRectangle width="30" height="30" as="alternateBounds" />
          </mxGeometry>
        </mxCell>
        <mxCell id="2dNWp42R9KnTXTzvP6k_-7" value="Password: TEXT: NOT NULL" style="shape=partialRectangle;connectable=0;fillColor=none;top=0;left=0;bottom=0;right=0;align=left;spacingLeft=6;overflow=hidden;whiteSpace=wrap;html=1;" parent="2dNWp42R9KnTXTzvP6k_-5" vertex="1">
          <mxGeometry x="30" width="270" height="30" as="geometry">
            <mxRectangle width="270" height="30" as="alternateBounds" />
          </mxGeometry>
        </mxCell>
        <mxCell id="2dNWp42R9KnTXTzvP6k_-8" value="" style="shape=tableRow;horizontal=0;startSize=0;swimlaneHead=0;swimlaneBody=0;fillColor=none;collapsible=0;dropTarget=0;points=[[0,0.5],[1,0.5]];portConstraint=eastwest;top=0;left=0;right=0;bottom=0;" parent="CMmYyxB9AxRojB-h8BCf-18" vertex="1">
          <mxGeometry y="180" width="300" height="40" as="geometry" />
        </mxCell>
        <mxCell id="2dNWp42R9KnTXTzvP6k_-9" value="" style="shape=partialRectangle;connectable=0;fillColor=none;top=0;left=0;bottom=0;right=0;editable=1;overflow=hidden;whiteSpace=wrap;html=1;" parent="2dNWp42R9KnTXTzvP6k_-8" vertex="1">
          <mxGeometry width="30" height="40" as="geometry">
            <mxRectangle width="30" height="40" as="alternateBounds" />
          </mxGeometry>
        </mxCell>
        <mxCell id="2dNWp42R9KnTXTzvP6k_-10" value="Membership: TEXT: NOT NULL: CHECK (Membership type)" style="shape=partialRectangle;connectable=0;fillColor=none;top=0;left=0;bottom=0;right=0;align=left;spacingLeft=6;overflow=hidden;whiteSpace=wrap;html=1;" parent="2dNWp42R9KnTXTzvP6k_-8" vertex="1">
          <mxGeometry x="30" width="270" height="40" as="geometry">
            <mxRectangle width="270" height="40" as="alternateBounds" />
          </mxGeometry>
        </mxCell>
        <mxCell id="2dNWp42R9KnTXTzvP6k_-16" value="" style="shape=tableRow;horizontal=0;startSize=0;swimlaneHead=0;swimlaneBody=0;fillColor=none;collapsible=0;dropTarget=0;points=[[0,0.5],[1,0.5]];portConstraint=eastwest;top=0;left=0;right=0;bottom=0;" parent="CMmYyxB9AxRojB-h8BCf-18" vertex="1">
          <mxGeometry y="220" width="300" height="40" as="geometry" />
        </mxCell>
        <mxCell id="2dNWp42R9KnTXTzvP6k_-17" value="FK1" style="shape=partialRectangle;connectable=0;fillColor=none;top=0;left=0;bottom=0;right=0;editable=1;overflow=hidden;whiteSpace=wrap;html=1;" parent="2dNWp42R9KnTXTzvP6k_-16" vertex="1">
          <mxGeometry width="30" height="40" as="geometry">
            <mxRectangle width="30" height="40" as="alternateBounds" />
          </mxGeometry>
        </mxCell>
        <mxCell id="2dNWp42R9KnTXTzvP6k_-18" value="MembershipPayment: INTEGER" style="shape=partialRectangle;connectable=0;fillColor=none;top=0;left=0;bottom=0;right=0;align=left;spacingLeft=6;overflow=hidden;whiteSpace=wrap;html=1;" parent="2dNWp42R9KnTXTzvP6k_-16" vertex="1">
          <mxGeometry x="30" width="270" height="40" as="geometry">
            <mxRectangle width="270" height="40" as="alternateBounds" />
          </mxGeometry>
        </mxCell>
        <mxCell id="CMmYyxB9AxRojB-h8BCf-57" value="WatchListMovie" style="shape=table;startSize=30;container=1;collapsible=1;childLayout=tableLayout;fixedRows=1;rowLines=0;fontStyle=1;align=center;resizeLast=1;html=1;fillColor=#dae8fc;strokeColor=#6c8ebf;" parent="1" vertex="1">
          <mxGeometry x="733" y="210" width="270" height="90" as="geometry" />
        </mxCell>
        <mxCell id="CMmYyxB9AxRojB-h8BCf-58" value="" style="shape=tableRow;horizontal=0;startSize=0;swimlaneHead=0;swimlaneBody=0;fillColor=none;collapsible=0;dropTarget=0;points=[[0,0.5],[1,0.5]];portConstraint=eastwest;top=0;left=0;right=0;bottom=1;align=left;verticalAlign=top;" parent="CMmYyxB9AxRojB-h8BCf-57" vertex="1">
          <mxGeometry y="30" width="270" height="60" as="geometry" />
        </mxCell>
        <mxCell id="CMmYyxB9AxRojB-h8BCf-59" value="PK,FK&lt;div&gt;&lt;br&gt;&lt;/div&gt;&lt;div&gt;PK,FK&lt;/div&gt;" style="shape=partialRectangle;connectable=0;fillColor=none;top=0;left=0;bottom=0;right=0;fontStyle=1;overflow=hidden;whiteSpace=wrap;html=1;align=left;verticalAlign=top;" parent="CMmYyxB9AxRojB-h8BCf-58" vertex="1">
          <mxGeometry width="50" height="60" as="geometry">
            <mxRectangle width="50" height="60" as="alternateBounds" />
          </mxGeometry>
        </mxCell>
        <mxCell id="CMmYyxB9AxRojB-h8BCf-60" value="MovieID: INTEGER&lt;br&gt;&lt;div&gt;&lt;br&gt;&lt;/div&gt;&lt;div&gt;UserID: INTEGER&lt;br&gt;&lt;/div&gt;" style="shape=partialRectangle;connectable=0;fillColor=none;top=0;left=0;bottom=0;right=0;align=left;spacingLeft=6;fontStyle=5;overflow=hidden;whiteSpace=wrap;html=1;verticalAlign=top;" parent="CMmYyxB9AxRojB-h8BCf-58" vertex="1">
          <mxGeometry x="50" width="220" height="60" as="geometry">
            <mxRectangle width="220" height="60" as="alternateBounds" />
          </mxGeometry>
        </mxCell>
        <mxCell id="CMmYyxB9AxRojB-h8BCf-129" value="WatchListTVShow" style="shape=table;startSize=30;container=1;collapsible=1;childLayout=tableLayout;fixedRows=1;rowLines=0;fontStyle=1;align=center;resizeLast=1;html=1;fillColor=#dae8fc;strokeColor=#6c8ebf;" parent="1" vertex="1">
          <mxGeometry x="733" y="90" width="270" height="90" as="geometry" />
        </mxCell>
        <mxCell id="CMmYyxB9AxRojB-h8BCf-130" value="" style="shape=tableRow;horizontal=0;startSize=0;swimlaneHead=0;swimlaneBody=0;fillColor=none;collapsible=0;dropTarget=0;points=[[0,0.5],[1,0.5]];portConstraint=eastwest;top=0;left=0;right=0;bottom=1;align=left;verticalAlign=top;" parent="CMmYyxB9AxRojB-h8BCf-129" vertex="1">
          <mxGeometry y="30" width="270" height="60" as="geometry" />
        </mxCell>
        <mxCell id="CMmYyxB9AxRojB-h8BCf-131" value="PK,FK&lt;div&gt;&lt;br&gt;&lt;/div&gt;&lt;div&gt;PK,FK&lt;/div&gt;" style="shape=partialRectangle;connectable=0;fillColor=none;top=0;left=0;bottom=0;right=0;fontStyle=1;overflow=hidden;whiteSpace=wrap;html=1;align=left;verticalAlign=top;" parent="CMmYyxB9AxRojB-h8BCf-130" vertex="1">
          <mxGeometry width="50" height="60" as="geometry">
            <mxRectangle width="50" height="60" as="alternateBounds" />
          </mxGeometry>
        </mxCell>
        <mxCell id="CMmYyxB9AxRojB-h8BCf-132" value="TVShowID: INTEGER&lt;br&gt;&lt;div&gt;&lt;br&gt;&lt;/div&gt;&lt;div&gt;UserID: INTEGER&lt;br&gt;&lt;/div&gt;" style="shape=partialRectangle;connectable=0;fillColor=none;top=0;left=0;bottom=0;right=0;align=left;spacingLeft=6;fontStyle=5;overflow=hidden;whiteSpace=wrap;html=1;verticalAlign=top;" parent="CMmYyxB9AxRojB-h8BCf-130" vertex="1">
          <mxGeometry x="50" width="220" height="60" as="geometry">
            <mxRectangle width="220" height="60" as="alternateBounds" />
          </mxGeometry>
        </mxCell>
        <mxCell id="CMmYyxB9AxRojB-h8BCf-142" value="TVShow" style="shape=table;startSize=20;container=1;collapsible=1;childLayout=tableLayout;fixedRows=1;rowLines=0;fontStyle=1;align=center;resizeLast=1;html=1;verticalAlign=top;fillColor=#f8cecc;strokeColor=#b85450;" parent="1" vertex="1">
          <mxGeometry x="1173" y="430" width="310" height="140" as="geometry" />
        </mxCell>
        <mxCell id="CMmYyxB9AxRojB-h8BCf-143" value="" style="shape=tableRow;horizontal=0;startSize=0;swimlaneHead=0;swimlaneBody=0;fillColor=none;collapsible=0;dropTarget=0;points=[[0,0.5],[1,0.5]];portConstraint=eastwest;top=0;left=0;right=0;bottom=1;" parent="CMmYyxB9AxRojB-h8BCf-142" vertex="1">
          <mxGeometry y="20" width="310" height="30" as="geometry" />
        </mxCell>
        <mxCell id="CMmYyxB9AxRojB-h8BCf-144" value="PK&lt;div&gt;&lt;br&gt;&lt;/div&gt;" style="shape=partialRectangle;connectable=0;fillColor=none;top=0;left=0;bottom=0;right=0;fontStyle=1;overflow=hidden;whiteSpace=wrap;html=1;verticalAlign=top;" parent="CMmYyxB9AxRojB-h8BCf-143" vertex="1">
          <mxGeometry width="30" height="30" as="geometry">
            <mxRectangle width="30" height="30" as="alternateBounds" />
          </mxGeometry>
        </mxCell>
        <mxCell id="CMmYyxB9AxRojB-h8BCf-145" value="TVShowID: INTEGER" style="shape=partialRectangle;connectable=0;fillColor=none;top=0;left=0;bottom=0;right=0;align=left;spacingLeft=6;fontStyle=5;overflow=hidden;whiteSpace=wrap;html=1;verticalAlign=top;" parent="CMmYyxB9AxRojB-h8BCf-143" vertex="1">
          <mxGeometry x="30" width="280" height="30" as="geometry">
            <mxRectangle width="280" height="30" as="alternateBounds" />
          </mxGeometry>
        </mxCell>
        <mxCell id="CMmYyxB9AxRojB-h8BCf-146" value="" style="shape=tableRow;horizontal=0;startSize=0;swimlaneHead=0;swimlaneBody=0;fillColor=none;collapsible=0;dropTarget=0;points=[[0,0.5],[1,0.5]];portConstraint=eastwest;top=0;left=0;right=0;bottom=0;" parent="CMmYyxB9AxRojB-h8BCf-142" vertex="1">
          <mxGeometry y="50" width="310" height="30" as="geometry" />
        </mxCell>
        <mxCell id="CMmYyxB9AxRojB-h8BCf-147" value="" style="shape=partialRectangle;connectable=0;fillColor=none;top=0;left=0;bottom=0;right=0;editable=1;overflow=hidden;whiteSpace=wrap;html=1;" parent="CMmYyxB9AxRojB-h8BCf-146" vertex="1">
          <mxGeometry width="30" height="30" as="geometry">
            <mxRectangle width="30" height="30" as="alternateBounds" />
          </mxGeometry>
        </mxCell>
        <mxCell id="CMmYyxB9AxRojB-h8BCf-148" value="Title: TEXT: NOT NULL" style="shape=partialRectangle;connectable=0;fillColor=none;top=0;left=0;bottom=0;right=0;align=left;spacingLeft=6;overflow=hidden;whiteSpace=wrap;html=1;" parent="CMmYyxB9AxRojB-h8BCf-146" vertex="1">
          <mxGeometry x="30" width="280" height="30" as="geometry">
            <mxRectangle width="280" height="30" as="alternateBounds" />
          </mxGeometry>
        </mxCell>
        <mxCell id="CMmYyxB9AxRojB-h8BCf-149" value="" style="shape=tableRow;horizontal=0;startSize=0;swimlaneHead=0;swimlaneBody=0;fillColor=none;collapsible=0;dropTarget=0;points=[[0,0.5],[1,0.5]];portConstraint=eastwest;top=0;left=0;right=0;bottom=0;" parent="CMmYyxB9AxRojB-h8BCf-142" vertex="1">
          <mxGeometry y="80" width="310" height="30" as="geometry" />
        </mxCell>
        <mxCell id="CMmYyxB9AxRojB-h8BCf-150" value="" style="shape=partialRectangle;connectable=0;fillColor=none;top=0;left=0;bottom=0;right=0;editable=1;overflow=hidden;whiteSpace=wrap;html=1;" parent="CMmYyxB9AxRojB-h8BCf-149" vertex="1">
          <mxGeometry width="30" height="30" as="geometry">
            <mxRectangle width="30" height="30" as="alternateBounds" />
          </mxGeometry>
        </mxCell>
        <mxCell id="CMmYyxB9AxRojB-h8BCf-151" value="ReleaseDate: TEXT (YYYY-MM-DD): NOT NULL" style="shape=partialRectangle;connectable=0;fillColor=none;top=0;left=0;bottom=0;right=0;align=left;spacingLeft=6;overflow=hidden;whiteSpace=wrap;html=1;" parent="CMmYyxB9AxRojB-h8BCf-149" vertex="1">
          <mxGeometry x="30" width="280" height="30" as="geometry">
            <mxRectangle width="280" height="30" as="alternateBounds" />
          </mxGeometry>
        </mxCell>
        <mxCell id="2dNWp42R9KnTXTzvP6k_-103" value="" style="shape=tableRow;horizontal=0;startSize=0;swimlaneHead=0;swimlaneBody=0;fillColor=none;collapsible=0;dropTarget=0;points=[[0,0.5],[1,0.5]];portConstraint=eastwest;top=0;left=0;right=0;bottom=0;" parent="CMmYyxB9AxRojB-h8BCf-142" vertex="1">
          <mxGeometry y="110" width="310" height="30" as="geometry" />
        </mxCell>
        <mxCell id="2dNWp42R9KnTXTzvP6k_-104" value="" style="shape=partialRectangle;connectable=0;fillColor=none;top=0;left=0;bottom=0;right=0;editable=1;overflow=hidden;whiteSpace=wrap;html=1;" parent="2dNWp42R9KnTXTzvP6k_-103" vertex="1">
          <mxGeometry width="30" height="30" as="geometry">
            <mxRectangle width="30" height="30" as="alternateBounds" />
          </mxGeometry>
        </mxCell>
        <mxCell id="2dNWp42R9KnTXTzvP6k_-105" value="Synopsis: TEXT: NOT NULL" style="shape=partialRectangle;connectable=0;fillColor=none;top=0;left=0;bottom=0;right=0;align=left;spacingLeft=6;overflow=hidden;whiteSpace=wrap;html=1;" parent="2dNWp42R9KnTXTzvP6k_-103" vertex="1">
          <mxGeometry x="30" width="280" height="30" as="geometry">
            <mxRectangle width="280" height="30" as="alternateBounds" />
          </mxGeometry>
        </mxCell>
        <mxCell id="CMmYyxB9AxRojB-h8BCf-155" value="Episode" style="shape=table;startSize=30;container=1;collapsible=1;childLayout=tableLayout;fixedRows=1;rowLines=0;fontStyle=1;align=center;resizeLast=1;html=1;verticalAlign=top;fillColor=#f8cecc;strokeColor=#b85450;" parent="1" vertex="1">
          <mxGeometry x="1603" y="430" width="310" height="245" as="geometry" />
        </mxCell>
        <mxCell id="CMmYyxB9AxRojB-h8BCf-156" value="" style="shape=tableRow;horizontal=0;startSize=0;swimlaneHead=0;swimlaneBody=0;fillColor=none;collapsible=0;dropTarget=0;points=[[0,0.5],[1,0.5]];portConstraint=eastwest;top=0;left=0;right=0;bottom=1;" parent="CMmYyxB9AxRojB-h8BCf-155" vertex="1">
          <mxGeometry y="30" width="310" height="25" as="geometry" />
        </mxCell>
        <mxCell id="CMmYyxB9AxRojB-h8BCf-157" value="PK" style="shape=partialRectangle;connectable=0;fillColor=none;top=0;left=0;bottom=0;right=0;fontStyle=1;overflow=hidden;whiteSpace=wrap;html=1;verticalAlign=top;" parent="CMmYyxB9AxRojB-h8BCf-156" vertex="1">
          <mxGeometry width="30" height="25" as="geometry">
            <mxRectangle width="30" height="25" as="alternateBounds" />
          </mxGeometry>
        </mxCell>
        <mxCell id="CMmYyxB9AxRojB-h8BCf-158" value="EpisodeID: int" style="shape=partialRectangle;connectable=0;fillColor=none;top=0;left=0;bottom=0;right=0;align=left;spacingLeft=6;fontStyle=5;overflow=hidden;whiteSpace=wrap;html=1;" parent="CMmYyxB9AxRojB-h8BCf-156" vertex="1">
          <mxGeometry x="30" width="280" height="25" as="geometry">
            <mxRectangle width="280" height="25" as="alternateBounds" />
          </mxGeometry>
        </mxCell>
        <mxCell id="CMmYyxB9AxRojB-h8BCf-159" value="" style="shape=tableRow;horizontal=0;startSize=0;swimlaneHead=0;swimlaneBody=0;fillColor=none;collapsible=0;dropTarget=0;points=[[0,0.5],[1,0.5]];portConstraint=eastwest;top=0;left=0;right=0;bottom=0;" parent="CMmYyxB9AxRojB-h8BCf-155" vertex="1">
          <mxGeometry y="55" width="310" height="25" as="geometry" />
        </mxCell>
        <mxCell id="CMmYyxB9AxRojB-h8BCf-160" value="" style="shape=partialRectangle;connectable=0;fillColor=none;top=0;left=0;bottom=0;right=0;editable=1;overflow=hidden;whiteSpace=wrap;html=1;" parent="CMmYyxB9AxRojB-h8BCf-159" vertex="1">
          <mxGeometry width="30" height="25" as="geometry">
            <mxRectangle width="30" height="25" as="alternateBounds" />
          </mxGeometry>
        </mxCell>
        <mxCell id="CMmYyxB9AxRojB-h8BCf-161" value="Title: Varchar NOT NULL" style="shape=partialRectangle;connectable=0;fillColor=none;top=0;left=0;bottom=0;right=0;align=left;spacingLeft=6;overflow=hidden;whiteSpace=wrap;html=1;" parent="CMmYyxB9AxRojB-h8BCf-159" vertex="1">
          <mxGeometry x="30" width="280" height="25" as="geometry">
            <mxRectangle width="280" height="25" as="alternateBounds" />
          </mxGeometry>
        </mxCell>
        <mxCell id="2dNWp42R9KnTXTzvP6k_-106" value="" style="shape=tableRow;horizontal=0;startSize=0;swimlaneHead=0;swimlaneBody=0;fillColor=none;collapsible=0;dropTarget=0;points=[[0,0.5],[1,0.5]];portConstraint=eastwest;top=0;left=0;right=0;bottom=0;" parent="CMmYyxB9AxRojB-h8BCf-155" vertex="1">
          <mxGeometry y="80" width="310" height="25" as="geometry" />
        </mxCell>
        <mxCell id="2dNWp42R9KnTXTzvP6k_-107" value="" style="shape=partialRectangle;connectable=0;fillColor=none;top=0;left=0;bottom=0;right=0;editable=1;overflow=hidden;whiteSpace=wrap;html=1;" parent="2dNWp42R9KnTXTzvP6k_-106" vertex="1">
          <mxGeometry width="30" height="25" as="geometry">
            <mxRectangle width="30" height="25" as="alternateBounds" />
          </mxGeometry>
        </mxCell>
        <mxCell id="2dNWp42R9KnTXTzvP6k_-108" value="ReleaseDate: TEXT (YYYY-MM-DD): NOT NULL" style="shape=partialRectangle;connectable=0;fillColor=none;top=0;left=0;bottom=0;right=0;align=left;spacingLeft=6;overflow=hidden;whiteSpace=wrap;html=1;" parent="2dNWp42R9KnTXTzvP6k_-106" vertex="1">
          <mxGeometry x="30" width="280" height="25" as="geometry">
            <mxRectangle width="280" height="25" as="alternateBounds" />
          </mxGeometry>
        </mxCell>
        <mxCell id="2dNWp42R9KnTXTzvP6k_-109" value="" style="shape=tableRow;horizontal=0;startSize=0;swimlaneHead=0;swimlaneBody=0;fillColor=none;collapsible=0;dropTarget=0;points=[[0,0.5],[1,0.5]];portConstraint=eastwest;top=0;left=0;right=0;bottom=0;" parent="CMmYyxB9AxRojB-h8BCf-155" vertex="1">
          <mxGeometry y="105" width="310" height="25" as="geometry" />
        </mxCell>
        <mxCell id="2dNWp42R9KnTXTzvP6k_-110" value="" style="shape=partialRectangle;connectable=0;fillColor=none;top=0;left=0;bottom=0;right=0;editable=1;overflow=hidden;whiteSpace=wrap;html=1;" parent="2dNWp42R9KnTXTzvP6k_-109" vertex="1">
          <mxGeometry width="30" height="25" as="geometry">
            <mxRectangle width="30" height="25" as="alternateBounds" />
          </mxGeometry>
        </mxCell>
        <mxCell id="2dNWp42R9KnTXTzvP6k_-111" value="Synopsis: TEXT: NOT NULL" style="shape=partialRectangle;connectable=0;fillColor=none;top=0;left=0;bottom=0;right=0;align=left;spacingLeft=6;overflow=hidden;whiteSpace=wrap;html=1;" parent="2dNWp42R9KnTXTzvP6k_-109" vertex="1">
          <mxGeometry x="30" width="280" height="25" as="geometry">
            <mxRectangle width="280" height="25" as="alternateBounds" />
          </mxGeometry>
        </mxCell>
        <mxCell id="2dNWp42R9KnTXTzvP6k_-112" value="" style="shape=tableRow;horizontal=0;startSize=0;swimlaneHead=0;swimlaneBody=0;fillColor=none;collapsible=0;dropTarget=0;points=[[0,0.5],[1,0.5]];portConstraint=eastwest;top=0;left=0;right=0;bottom=0;" parent="CMmYyxB9AxRojB-h8BCf-155" vertex="1">
          <mxGeometry y="130" width="310" height="25" as="geometry" />
        </mxCell>
        <mxCell id="2dNWp42R9KnTXTzvP6k_-113" value="" style="shape=partialRectangle;connectable=0;fillColor=none;top=0;left=0;bottom=0;right=0;editable=1;overflow=hidden;whiteSpace=wrap;html=1;" parent="2dNWp42R9KnTXTzvP6k_-112" vertex="1">
          <mxGeometry width="30" height="25" as="geometry">
            <mxRectangle width="30" height="25" as="alternateBounds" />
          </mxGeometry>
        </mxCell>
        <mxCell id="2dNWp42R9KnTXTzvP6k_-114" value="Duration: INTEGER: NOT NULL" style="shape=partialRectangle;connectable=0;fillColor=none;top=0;left=0;bottom=0;right=0;align=left;spacingLeft=6;overflow=hidden;whiteSpace=wrap;html=1;" parent="2dNWp42R9KnTXTzvP6k_-112" vertex="1">
          <mxGeometry x="30" width="280" height="25" as="geometry">
            <mxRectangle width="280" height="25" as="alternateBounds" />
          </mxGeometry>
        </mxCell>
        <mxCell id="CMmYyxB9AxRojB-h8BCf-162" value="" style="shape=tableRow;horizontal=0;startSize=0;swimlaneHead=0;swimlaneBody=0;fillColor=none;collapsible=0;dropTarget=0;points=[[0,0.5],[1,0.5]];portConstraint=eastwest;top=0;left=0;right=0;bottom=0;" parent="CMmYyxB9AxRojB-h8BCf-155" vertex="1">
          <mxGeometry y="155" width="310" height="30" as="geometry" />
        </mxCell>
        <mxCell id="CMmYyxB9AxRojB-h8BCf-163" value="" style="shape=partialRectangle;connectable=0;fillColor=none;top=0;left=0;bottom=0;right=0;editable=1;overflow=hidden;whiteSpace=wrap;html=1;" parent="CMmYyxB9AxRojB-h8BCf-162" vertex="1">
          <mxGeometry width="30" height="30" as="geometry">
            <mxRectangle width="30" height="30" as="alternateBounds" />
          </mxGeometry>
        </mxCell>
        <mxCell id="CMmYyxB9AxRojB-h8BCf-164" value="SeasonNumber: INTEGER: NOT NULL" style="shape=partialRectangle;connectable=0;fillColor=none;top=0;left=0;bottom=0;right=0;align=left;spacingLeft=6;overflow=hidden;whiteSpace=wrap;html=1;" parent="CMmYyxB9AxRojB-h8BCf-162" vertex="1">
          <mxGeometry x="30" width="280" height="30" as="geometry">
            <mxRectangle width="280" height="30" as="alternateBounds" />
          </mxGeometry>
        </mxCell>
        <mxCell id="CMmYyxB9AxRojB-h8BCf-165" value="" style="shape=tableRow;horizontal=0;startSize=0;swimlaneHead=0;swimlaneBody=0;fillColor=none;collapsible=0;dropTarget=0;points=[[0,0.5],[1,0.5]];portConstraint=eastwest;top=0;left=0;right=0;bottom=0;" parent="CMmYyxB9AxRojB-h8BCf-155" vertex="1">
          <mxGeometry y="185" width="310" height="30" as="geometry" />
        </mxCell>
        <mxCell id="CMmYyxB9AxRojB-h8BCf-166" value="" style="shape=partialRectangle;connectable=0;fillColor=none;top=0;left=0;bottom=0;right=0;editable=1;overflow=hidden;whiteSpace=wrap;html=1;" parent="CMmYyxB9AxRojB-h8BCf-165" vertex="1">
          <mxGeometry width="30" height="30" as="geometry">
            <mxRectangle width="30" height="30" as="alternateBounds" />
          </mxGeometry>
        </mxCell>
        <mxCell id="CMmYyxB9AxRojB-h8BCf-167" value="EpisodeNumber: INTEGER: NOT NULL" style="shape=partialRectangle;connectable=0;fillColor=none;top=0;left=0;bottom=0;right=0;align=left;spacingLeft=6;overflow=hidden;whiteSpace=wrap;html=1;" parent="CMmYyxB9AxRojB-h8BCf-165" vertex="1">
          <mxGeometry x="30" width="280" height="30" as="geometry">
            <mxRectangle width="280" height="30" as="alternateBounds" />
          </mxGeometry>
        </mxCell>
        <mxCell id="2dNWp42R9KnTXTzvP6k_-115" value="" style="shape=tableRow;horizontal=0;startSize=0;swimlaneHead=0;swimlaneBody=0;fillColor=none;collapsible=0;dropTarget=0;points=[[0,0.5],[1,0.5]];portConstraint=eastwest;top=0;left=0;right=0;bottom=0;" parent="CMmYyxB9AxRojB-h8BCf-155" vertex="1">
          <mxGeometry y="215" width="310" height="30" as="geometry" />
        </mxCell>
        <mxCell id="2dNWp42R9KnTXTzvP6k_-116" value="FK1" style="shape=partialRectangle;connectable=0;fillColor=none;top=0;left=0;bottom=0;right=0;editable=1;overflow=hidden;whiteSpace=wrap;html=1;" parent="2dNWp42R9KnTXTzvP6k_-115" vertex="1">
          <mxGeometry width="30" height="30" as="geometry">
            <mxRectangle width="30" height="30" as="alternateBounds" />
          </mxGeometry>
        </mxCell>
        <mxCell id="2dNWp42R9KnTXTzvP6k_-117" value="TVShowID: INTEGER" style="shape=partialRectangle;connectable=0;fillColor=none;top=0;left=0;bottom=0;right=0;align=left;spacingLeft=6;overflow=hidden;whiteSpace=wrap;html=1;" parent="2dNWp42R9KnTXTzvP6k_-115" vertex="1">
          <mxGeometry x="30" width="280" height="30" as="geometry">
            <mxRectangle width="280" height="30" as="alternateBounds" />
          </mxGeometry>
        </mxCell>
        <mxCell id="CMmYyxB9AxRojB-h8BCf-168" value="" style="endArrow=ERzeroToMany;html=1;rounded=0;strokeWidth=2;startArrow=ERmandOne;startFill=0;endSize=15;endFill=0;startSize=15;edgeStyle=orthogonalEdgeStyle;" parent="1" source="CMmYyxB9AxRojB-h8BCf-18" target="CMmYyxB9AxRojB-h8BCf-130" edge="1">
          <mxGeometry relative="1" as="geometry">
            <mxPoint x="593" y="190" as="sourcePoint" />
            <mxPoint x="623" y="407.5" as="targetPoint" />
            <Array as="points">
              <mxPoint x="633" y="150" />
              <mxPoint x="633" y="150" />
            </Array>
          </mxGeometry>
        </mxCell>
        <mxCell id="2dNWp42R9KnTXTzvP6k_-12" value="Saves" style="edgeLabel;html=1;align=center;verticalAlign=middle;resizable=0;points=[];" parent="CMmYyxB9AxRojB-h8BCf-168" connectable="0" vertex="1">
          <mxGeometry x="0.2858" y="1" relative="1" as="geometry">
            <mxPoint x="-26" y="1" as="offset" />
          </mxGeometry>
        </mxCell>
        <mxCell id="CMmYyxB9AxRojB-h8BCf-169" value="" style="endArrow=ERzeroToMany;html=1;rounded=0;strokeWidth=2;endSize=15;startSize=15;endFill=0;startArrow=ERmandOne;startFill=0;edgeStyle=orthogonalEdgeStyle;" parent="1" source="CMmYyxB9AxRojB-h8BCf-142" target="CMmYyxB9AxRojB-h8BCf-129" edge="1">
          <mxGeometry relative="1" as="geometry">
            <mxPoint x="1063" y="131" as="sourcePoint" />
            <mxPoint x="1668.000000000001" y="210" as="targetPoint" />
            <Array as="points">
              <mxPoint x="1140" y="500" />
              <mxPoint x="1140" y="135" />
            </Array>
          </mxGeometry>
        </mxCell>
        <mxCell id="2dNWp42R9KnTXTzvP6k_-87" value="Contains" style="edgeLabel;html=1;align=center;verticalAlign=middle;resizable=0;points=[];" parent="CMmYyxB9AxRojB-h8BCf-169" connectable="0" vertex="1">
          <mxGeometry x="0.006" y="1" relative="1" as="geometry">
            <mxPoint x="-89" y="-41" as="offset" />
          </mxGeometry>
        </mxCell>
        <mxCell id="CMmYyxB9AxRojB-h8BCf-171" value="Actor" style="shape=table;startSize=30;container=1;collapsible=1;childLayout=tableLayout;fixedRows=1;rowLines=0;fontStyle=1;align=center;resizeLast=1;html=1;fillColor=#f8cecc;strokeColor=#b85450;" parent="1" vertex="1">
          <mxGeometry x="541" y="1012" width="230" height="138" as="geometry" />
        </mxCell>
        <mxCell id="CMmYyxB9AxRojB-h8BCf-172" value="" style="shape=tableRow;horizontal=0;startSize=0;swimlaneHead=0;swimlaneBody=0;fillColor=none;collapsible=0;dropTarget=0;points=[[0,0.5],[1,0.5]];portConstraint=eastwest;top=0;left=0;right=0;bottom=1;" parent="CMmYyxB9AxRojB-h8BCf-171" vertex="1">
          <mxGeometry y="30" width="230" height="30" as="geometry" />
        </mxCell>
        <mxCell id="CMmYyxB9AxRojB-h8BCf-173" value="PK" style="shape=partialRectangle;connectable=0;fillColor=none;top=0;left=0;bottom=0;right=0;fontStyle=1;overflow=hidden;whiteSpace=wrap;html=1;" parent="CMmYyxB9AxRojB-h8BCf-172" vertex="1">
          <mxGeometry width="30" height="30" as="geometry">
            <mxRectangle width="30" height="30" as="alternateBounds" />
          </mxGeometry>
        </mxCell>
        <mxCell id="CMmYyxB9AxRojB-h8BCf-174" value="ActorID: INTEGER" style="shape=partialRectangle;connectable=0;fillColor=none;top=0;left=0;bottom=0;right=0;align=left;spacingLeft=6;fontStyle=5;overflow=hidden;whiteSpace=wrap;html=1;" parent="CMmYyxB9AxRojB-h8BCf-172" vertex="1">
          <mxGeometry x="30" width="200" height="30" as="geometry">
            <mxRectangle width="200" height="30" as="alternateBounds" />
          </mxGeometry>
        </mxCell>
        <mxCell id="CMmYyxB9AxRojB-h8BCf-175" value="" style="shape=tableRow;horizontal=0;startSize=0;swimlaneHead=0;swimlaneBody=0;fillColor=none;collapsible=0;dropTarget=0;points=[[0,0.5],[1,0.5]];portConstraint=eastwest;top=0;left=0;right=0;bottom=0;" parent="CMmYyxB9AxRojB-h8BCf-171" vertex="1">
          <mxGeometry y="60" width="230" height="39" as="geometry" />
        </mxCell>
        <mxCell id="CMmYyxB9AxRojB-h8BCf-176" value="" style="shape=partialRectangle;connectable=0;fillColor=none;top=0;left=0;bottom=0;right=0;editable=1;overflow=hidden;whiteSpace=wrap;html=1;" parent="CMmYyxB9AxRojB-h8BCf-175" vertex="1">
          <mxGeometry width="30" height="39" as="geometry">
            <mxRectangle width="30" height="39" as="alternateBounds" />
          </mxGeometry>
        </mxCell>
        <mxCell id="CMmYyxB9AxRojB-h8BCf-177" value="FirstName: TEXT: NOT NULL" style="shape=partialRectangle;connectable=0;fillColor=none;top=0;left=0;bottom=0;right=0;align=left;spacingLeft=6;overflow=hidden;whiteSpace=wrap;html=1;" parent="CMmYyxB9AxRojB-h8BCf-175" vertex="1">
          <mxGeometry x="30" width="200" height="39" as="geometry">
            <mxRectangle width="200" height="39" as="alternateBounds" />
          </mxGeometry>
        </mxCell>
        <mxCell id="CMmYyxB9AxRojB-h8BCf-178" value="" style="shape=tableRow;horizontal=0;startSize=0;swimlaneHead=0;swimlaneBody=0;fillColor=none;collapsible=0;dropTarget=0;points=[[0,0.5],[1,0.5]];portConstraint=eastwest;top=0;left=0;right=0;bottom=0;" parent="CMmYyxB9AxRojB-h8BCf-171" vertex="1">
          <mxGeometry y="99" width="230" height="39" as="geometry" />
        </mxCell>
        <mxCell id="CMmYyxB9AxRojB-h8BCf-179" value="" style="shape=partialRectangle;connectable=0;fillColor=none;top=0;left=0;bottom=0;right=0;editable=1;overflow=hidden;whiteSpace=wrap;html=1;" parent="CMmYyxB9AxRojB-h8BCf-178" vertex="1">
          <mxGeometry width="30" height="39" as="geometry">
            <mxRectangle width="30" height="39" as="alternateBounds" />
          </mxGeometry>
        </mxCell>
        <mxCell id="CMmYyxB9AxRojB-h8BCf-180" value="LastName: TEXT: NOT NULL" style="shape=partialRectangle;connectable=0;fillColor=none;top=0;left=0;bottom=0;right=0;align=left;spacingLeft=6;overflow=hidden;whiteSpace=wrap;html=1;" parent="CMmYyxB9AxRojB-h8BCf-178" vertex="1">
          <mxGeometry x="30" width="200" height="39" as="geometry">
            <mxRectangle width="200" height="39" as="alternateBounds" />
          </mxGeometry>
        </mxCell>
        <mxCell id="WOrVM6R8vULsxEWWa1rx-2" value="" style="endArrow=ERzeroToMany;html=1;rounded=0;strokeWidth=2;startArrow=ERmandOne;startFill=0;endSize=15;endFill=0;startSize=15;edgeStyle=orthogonalEdgeStyle;" parent="1" source="CMmYyxB9AxRojB-h8BCf-18" target="CMmYyxB9AxRojB-h8BCf-57" edge="1">
          <mxGeometry relative="1" as="geometry">
            <mxPoint x="623" y="120" as="sourcePoint" />
            <mxPoint x="713" y="60" as="targetPoint" />
            <Array as="points">
              <mxPoint x="633" y="255" />
              <mxPoint x="633" y="255" />
            </Array>
          </mxGeometry>
        </mxCell>
        <mxCell id="2dNWp42R9KnTXTzvP6k_-11" value="Saves" style="edgeLabel;html=1;align=center;verticalAlign=middle;resizable=0;points=[];" parent="WOrVM6R8vULsxEWWa1rx-2" connectable="0" vertex="1">
          <mxGeometry x="-0.1474" y="1" relative="1" as="geometry">
            <mxPoint x="5" y="1" as="offset" />
          </mxGeometry>
        </mxCell>
        <mxCell id="2dNWp42R9KnTXTzvP6k_-13" value="" style="edgeStyle=orthogonalEdgeStyle;fontSize=12;html=1;endArrow=ERzeroToMany;startArrow=ERmandOne;rounded=0;endSize=15;startSize=15;strokeWidth=2;startFill=0;endFill=0;" parent="1" source="2dNWp42R9KnTXTzvP6k_-37" target="CMmYyxB9AxRojB-h8BCf-57" edge="1">
          <mxGeometry width="100" height="100" relative="1" as="geometry">
            <mxPoint x="-262.5" y="440" as="sourcePoint" />
            <mxPoint x="592.4999999999995" y="691.5" as="targetPoint" />
            <Array as="points">
              <mxPoint x="868" y="390" />
              <mxPoint x="868" y="390" />
            </Array>
          </mxGeometry>
        </mxCell>
        <mxCell id="2dNWp42R9KnTXTzvP6k_-14" value="Contains" style="edgeLabel;html=1;align=center;verticalAlign=middle;resizable=0;points=[];" parent="2dNWp42R9KnTXTzvP6k_-13" connectable="0" vertex="1">
          <mxGeometry x="0.0164" y="-2" relative="1" as="geometry">
            <mxPoint x="-2" y="6" as="offset" />
          </mxGeometry>
        </mxCell>
        <mxCell id="2dNWp42R9KnTXTzvP6k_-19" value="Payment" style="shape=table;startSize=30;container=1;collapsible=1;childLayout=tableLayout;fixedRows=1;rowLines=0;fontStyle=1;align=center;resizeLast=1;html=1;fillColor=#f8cecc;strokeColor=#b85450;" parent="1" vertex="1">
          <mxGeometry x="278" y="430" width="330" height="190" as="geometry" />
        </mxCell>
        <mxCell id="2dNWp42R9KnTXTzvP6k_-20" value="" style="shape=tableRow;horizontal=0;startSize=0;swimlaneHead=0;swimlaneBody=0;fillColor=none;collapsible=0;dropTarget=0;points=[[0,0.5],[1,0.5]];portConstraint=eastwest;top=0;left=0;right=0;bottom=1;" parent="2dNWp42R9KnTXTzvP6k_-19" vertex="1">
          <mxGeometry y="30" width="330" height="30" as="geometry" />
        </mxCell>
        <mxCell id="2dNWp42R9KnTXTzvP6k_-21" value="PK" style="shape=partialRectangle;connectable=0;fillColor=none;top=0;left=0;bottom=0;right=0;fontStyle=1;overflow=hidden;whiteSpace=wrap;html=1;" parent="2dNWp42R9KnTXTzvP6k_-20" vertex="1">
          <mxGeometry width="30" height="30" as="geometry">
            <mxRectangle width="30" height="30" as="alternateBounds" />
          </mxGeometry>
        </mxCell>
        <mxCell id="2dNWp42R9KnTXTzvP6k_-22" value="PaymentID: INTEGER" style="shape=partialRectangle;connectable=0;fillColor=none;top=0;left=0;bottom=0;right=0;align=left;spacingLeft=6;fontStyle=5;overflow=hidden;whiteSpace=wrap;html=1;" parent="2dNWp42R9KnTXTzvP6k_-20" vertex="1">
          <mxGeometry x="30" width="300" height="30" as="geometry">
            <mxRectangle width="300" height="30" as="alternateBounds" />
          </mxGeometry>
        </mxCell>
        <mxCell id="2dNWp42R9KnTXTzvP6k_-23" value="" style="shape=tableRow;horizontal=0;startSize=0;swimlaneHead=0;swimlaneBody=0;fillColor=none;collapsible=0;dropTarget=0;points=[[0,0.5],[1,0.5]];portConstraint=eastwest;top=0;left=0;right=0;bottom=0;" parent="2dNWp42R9KnTXTzvP6k_-19" vertex="1">
          <mxGeometry y="60" width="330" height="30" as="geometry" />
        </mxCell>
        <mxCell id="2dNWp42R9KnTXTzvP6k_-24" value="" style="shape=partialRectangle;connectable=0;fillColor=none;top=0;left=0;bottom=0;right=0;editable=1;overflow=hidden;whiteSpace=wrap;html=1;" parent="2dNWp42R9KnTXTzvP6k_-23" vertex="1">
          <mxGeometry width="30" height="30" as="geometry">
            <mxRectangle width="30" height="30" as="alternateBounds" />
          </mxGeometry>
        </mxCell>
        <mxCell id="2dNWp42R9KnTXTzvP6k_-25" value="CardHolderName: TEXT: NOT NULL" style="shape=partialRectangle;connectable=0;fillColor=none;top=0;left=0;bottom=0;right=0;align=left;spacingLeft=6;overflow=hidden;whiteSpace=wrap;html=1;" parent="2dNWp42R9KnTXTzvP6k_-23" vertex="1">
          <mxGeometry x="30" width="300" height="30" as="geometry">
            <mxRectangle width="300" height="30" as="alternateBounds" />
          </mxGeometry>
        </mxCell>
        <mxCell id="2dNWp42R9KnTXTzvP6k_-26" value="" style="shape=tableRow;horizontal=0;startSize=0;swimlaneHead=0;swimlaneBody=0;fillColor=none;collapsible=0;dropTarget=0;points=[[0,0.5],[1,0.5]];portConstraint=eastwest;top=0;left=0;right=0;bottom=0;" parent="2dNWp42R9KnTXTzvP6k_-19" vertex="1">
          <mxGeometry y="90" width="330" height="60" as="geometry" />
        </mxCell>
        <mxCell id="2dNWp42R9KnTXTzvP6k_-27" value="" style="shape=partialRectangle;connectable=0;fillColor=none;top=0;left=0;bottom=0;right=0;editable=1;overflow=hidden;whiteSpace=wrap;html=1;" parent="2dNWp42R9KnTXTzvP6k_-26" vertex="1">
          <mxGeometry width="30" height="60" as="geometry">
            <mxRectangle width="30" height="60" as="alternateBounds" />
          </mxGeometry>
        </mxCell>
        <mxCell id="2dNWp42R9KnTXTzvP6k_-28" value="CreditCardNumber: TEXT: NOT NULL&lt;div&gt;&lt;br&gt;&lt;/div&gt;&lt;div&gt;CreditCardCVV: TEXT: NOT NULL&lt;/div&gt;" style="shape=partialRectangle;connectable=0;fillColor=none;top=0;left=0;bottom=0;right=0;align=left;spacingLeft=6;overflow=hidden;whiteSpace=wrap;html=1;" parent="2dNWp42R9KnTXTzvP6k_-26" vertex="1">
          <mxGeometry x="30" width="300" height="60" as="geometry">
            <mxRectangle width="300" height="60" as="alternateBounds" />
          </mxGeometry>
        </mxCell>
        <mxCell id="2dNWp42R9KnTXTzvP6k_-32" value="" style="shape=tableRow;horizontal=0;startSize=0;swimlaneHead=0;swimlaneBody=0;fillColor=none;collapsible=0;dropTarget=0;points=[[0,0.5],[1,0.5]];portConstraint=eastwest;top=0;left=0;right=0;bottom=0;" parent="2dNWp42R9KnTXTzvP6k_-19" vertex="1">
          <mxGeometry y="150" width="330" height="40" as="geometry" />
        </mxCell>
        <mxCell id="2dNWp42R9KnTXTzvP6k_-33" value="" style="shape=partialRectangle;connectable=0;fillColor=none;top=0;left=0;bottom=0;right=0;editable=1;overflow=hidden;whiteSpace=wrap;html=1;" parent="2dNWp42R9KnTXTzvP6k_-32" vertex="1">
          <mxGeometry width="30" height="40" as="geometry">
            <mxRectangle width="30" height="40" as="alternateBounds" />
          </mxGeometry>
        </mxCell>
        <mxCell id="2dNWp42R9KnTXTzvP6k_-34" value="CardExpirationDate: TEXT (YYYY-MM): NOT NULL: CHECK (Date not expired)" style="shape=partialRectangle;connectable=0;fillColor=none;top=0;left=0;bottom=0;right=0;align=left;spacingLeft=6;overflow=hidden;whiteSpace=wrap;html=1;" parent="2dNWp42R9KnTXTzvP6k_-32" vertex="1">
          <mxGeometry x="30" width="300" height="40" as="geometry">
            <mxRectangle width="300" height="40" as="alternateBounds" />
          </mxGeometry>
        </mxCell>
        <mxCell id="2dNWp42R9KnTXTzvP6k_-35" value="" style="edgeStyle=orthogonalEdgeStyle;fontSize=12;html=1;endArrow=ERmandOne;startArrow=ERzeroToOne;rounded=0;endSize=15;startSize=15;strokeWidth=2;endFill=0;startFill=0;" parent="1" source="2dNWp42R9KnTXTzvP6k_-19" target="CMmYyxB9AxRojB-h8BCf-18" edge="1">
          <mxGeometry width="100" height="100" relative="1" as="geometry">
            <mxPoint x="223" y="440" as="sourcePoint" />
            <mxPoint x="323" y="340" as="targetPoint" />
            <Array as="points" />
          </mxGeometry>
        </mxCell>
        <mxCell id="2dNWp42R9KnTXTzvP6k_-36" value="Makes" style="edgeLabel;html=1;align=center;verticalAlign=middle;resizable=0;points=[];" parent="2dNWp42R9KnTXTzvP6k_-35" connectable="0" vertex="1">
          <mxGeometry x="0.1818" relative="1" as="geometry">
            <mxPoint as="offset" />
          </mxGeometry>
        </mxCell>
        <mxCell id="2dNWp42R9KnTXTzvP6k_-37" value="Movie" style="shape=table;startSize=30;container=1;collapsible=1;childLayout=tableLayout;fixedRows=1;rowLines=0;fontStyle=1;align=center;resizeLast=1;html=1;fillColor=#f8cecc;strokeColor=#b85450;" parent="1" vertex="1">
          <mxGeometry x="793" y="430" width="310" height="235" as="geometry" />
        </mxCell>
        <mxCell id="2dNWp42R9KnTXTzvP6k_-38" value="" style="shape=tableRow;horizontal=0;startSize=0;swimlaneHead=0;swimlaneBody=0;fillColor=none;collapsible=0;dropTarget=0;points=[[0,0.5],[1,0.5]];portConstraint=eastwest;top=0;left=0;right=0;bottom=1;" parent="2dNWp42R9KnTXTzvP6k_-37" vertex="1">
          <mxGeometry y="30" width="310" height="85" as="geometry" />
        </mxCell>
        <mxCell id="2dNWp42R9KnTXTzvP6k_-39" value="PK&lt;div&gt;&lt;br&gt;&lt;/div&gt;&lt;div&gt;FK&lt;/div&gt;&lt;div&gt;&lt;br&gt;&lt;/div&gt;&lt;div&gt;FK&lt;/div&gt;" style="shape=partialRectangle;connectable=0;fillColor=none;top=0;left=0;bottom=0;right=0;fontStyle=1;overflow=hidden;whiteSpace=wrap;html=1;verticalAlign=top;" parent="2dNWp42R9KnTXTzvP6k_-38" vertex="1">
          <mxGeometry width="30" height="85" as="geometry">
            <mxRectangle width="30" height="85" as="alternateBounds" />
          </mxGeometry>
        </mxCell>
        <mxCell id="2dNWp42R9KnTXTzvP6k_-40" value="MovieID: INTEGER&lt;div&gt;&lt;br&gt;&lt;/div&gt;&lt;div&gt;ActorID: INTEGER&lt;/div&gt;&lt;div&gt;&lt;br&gt;&lt;/div&gt;&lt;div&gt;DirectorID: INTEGER&lt;/div&gt;" style="shape=partialRectangle;connectable=0;fillColor=none;top=0;left=0;bottom=0;right=0;align=left;spacingLeft=6;fontStyle=5;overflow=hidden;whiteSpace=wrap;html=1;verticalAlign=top;" parent="2dNWp42R9KnTXTzvP6k_-38" vertex="1">
          <mxGeometry x="30" width="280" height="85" as="geometry">
            <mxRectangle width="280" height="85" as="alternateBounds" />
          </mxGeometry>
        </mxCell>
        <mxCell id="2dNWp42R9KnTXTzvP6k_-41" value="" style="shape=tableRow;horizontal=0;startSize=0;swimlaneHead=0;swimlaneBody=0;fillColor=none;collapsible=0;dropTarget=0;points=[[0,0.5],[1,0.5]];portConstraint=eastwest;top=0;left=0;right=0;bottom=0;" parent="2dNWp42R9KnTXTzvP6k_-37" vertex="1">
          <mxGeometry y="115" width="310" height="30" as="geometry" />
        </mxCell>
        <mxCell id="2dNWp42R9KnTXTzvP6k_-42" value="" style="shape=partialRectangle;connectable=0;fillColor=none;top=0;left=0;bottom=0;right=0;editable=1;overflow=hidden;whiteSpace=wrap;html=1;" parent="2dNWp42R9KnTXTzvP6k_-41" vertex="1">
          <mxGeometry width="30" height="30" as="geometry">
            <mxRectangle width="30" height="30" as="alternateBounds" />
          </mxGeometry>
        </mxCell>
        <mxCell id="2dNWp42R9KnTXTzvP6k_-43" value="Title: TEXT: NOT NULL" style="shape=partialRectangle;connectable=0;fillColor=none;top=0;left=0;bottom=0;right=0;align=left;spacingLeft=6;overflow=hidden;whiteSpace=wrap;html=1;" parent="2dNWp42R9KnTXTzvP6k_-41" vertex="1">
          <mxGeometry x="30" width="280" height="30" as="geometry">
            <mxRectangle width="280" height="30" as="alternateBounds" />
          </mxGeometry>
        </mxCell>
        <mxCell id="2dNWp42R9KnTXTzvP6k_-44" value="" style="shape=tableRow;horizontal=0;startSize=0;swimlaneHead=0;swimlaneBody=0;fillColor=none;collapsible=0;dropTarget=0;points=[[0,0.5],[1,0.5]];portConstraint=eastwest;top=0;left=0;right=0;bottom=0;" parent="2dNWp42R9KnTXTzvP6k_-37" vertex="1">
          <mxGeometry y="145" width="310" height="30" as="geometry" />
        </mxCell>
        <mxCell id="2dNWp42R9KnTXTzvP6k_-45" value="" style="shape=partialRectangle;connectable=0;fillColor=none;top=0;left=0;bottom=0;right=0;editable=1;overflow=hidden;whiteSpace=wrap;html=1;" parent="2dNWp42R9KnTXTzvP6k_-44" vertex="1">
          <mxGeometry width="30" height="30" as="geometry">
            <mxRectangle width="30" height="30" as="alternateBounds" />
          </mxGeometry>
        </mxCell>
        <mxCell id="2dNWp42R9KnTXTzvP6k_-46" value="ReleaseDate: TEXT (YYYY-MM-DD): NOT NULL" style="shape=partialRectangle;connectable=0;fillColor=none;top=0;left=0;bottom=0;right=0;align=left;spacingLeft=6;overflow=hidden;whiteSpace=wrap;html=1;" parent="2dNWp42R9KnTXTzvP6k_-44" vertex="1">
          <mxGeometry x="30" width="280" height="30" as="geometry">
            <mxRectangle width="280" height="30" as="alternateBounds" />
          </mxGeometry>
        </mxCell>
        <mxCell id="2dNWp42R9KnTXTzvP6k_-50" value="" style="shape=tableRow;horizontal=0;startSize=0;swimlaneHead=0;swimlaneBody=0;fillColor=none;collapsible=0;dropTarget=0;points=[[0,0.5],[1,0.5]];portConstraint=eastwest;top=0;left=0;right=0;bottom=0;" parent="2dNWp42R9KnTXTzvP6k_-37" vertex="1">
          <mxGeometry y="175" width="310" height="30" as="geometry" />
        </mxCell>
        <mxCell id="2dNWp42R9KnTXTzvP6k_-51" value="" style="shape=partialRectangle;connectable=0;fillColor=none;top=0;left=0;bottom=0;right=0;editable=1;overflow=hidden;whiteSpace=wrap;html=1;" parent="2dNWp42R9KnTXTzvP6k_-50" vertex="1">
          <mxGeometry width="30" height="30" as="geometry">
            <mxRectangle width="30" height="30" as="alternateBounds" />
          </mxGeometry>
        </mxCell>
        <mxCell id="2dNWp42R9KnTXTzvP6k_-52" value="Duration: INTEGER: NOT NULL" style="shape=partialRectangle;connectable=0;fillColor=none;top=0;left=0;bottom=0;right=0;align=left;spacingLeft=6;overflow=hidden;whiteSpace=wrap;html=1;" parent="2dNWp42R9KnTXTzvP6k_-50" vertex="1">
          <mxGeometry x="30" width="280" height="30" as="geometry">
            <mxRectangle width="280" height="30" as="alternateBounds" />
          </mxGeometry>
        </mxCell>
        <mxCell id="2dNWp42R9KnTXTzvP6k_-79" value="" style="shape=tableRow;horizontal=0;startSize=0;swimlaneHead=0;swimlaneBody=0;fillColor=none;collapsible=0;dropTarget=0;points=[[0,0.5],[1,0.5]];portConstraint=eastwest;top=0;left=0;right=0;bottom=0;" parent="2dNWp42R9KnTXTzvP6k_-37" vertex="1">
          <mxGeometry y="205" width="310" height="30" as="geometry" />
        </mxCell>
        <mxCell id="2dNWp42R9KnTXTzvP6k_-80" value="" style="shape=partialRectangle;connectable=0;fillColor=none;top=0;left=0;bottom=0;right=0;editable=1;overflow=hidden;whiteSpace=wrap;html=1;" parent="2dNWp42R9KnTXTzvP6k_-79" vertex="1">
          <mxGeometry width="30" height="30" as="geometry">
            <mxRectangle width="30" height="30" as="alternateBounds" />
          </mxGeometry>
        </mxCell>
        <mxCell id="2dNWp42R9KnTXTzvP6k_-81" value="Synopsis: TEXT: NOT NULL" style="shape=partialRectangle;connectable=0;fillColor=none;top=0;left=0;bottom=0;right=0;align=left;spacingLeft=6;overflow=hidden;whiteSpace=wrap;html=1;" parent="2dNWp42R9KnTXTzvP6k_-79" vertex="1">
          <mxGeometry x="30" width="280" height="30" as="geometry">
            <mxRectangle width="280" height="30" as="alternateBounds" />
          </mxGeometry>
        </mxCell>
        <mxCell id="2dNWp42R9KnTXTzvP6k_-53" value="Genre" style="shape=table;startSize=30;container=1;collapsible=1;childLayout=tableLayout;fixedRows=1;rowLines=0;fontStyle=1;align=center;resizeLast=1;html=1;fillColor=#f8cecc;strokeColor=#b85450;" parent="1" vertex="1">
          <mxGeometry x="1530" width="220" height="100" as="geometry" />
        </mxCell>
        <mxCell id="2dNWp42R9KnTXTzvP6k_-54" value="" style="shape=tableRow;horizontal=0;startSize=0;swimlaneHead=0;swimlaneBody=0;fillColor=none;collapsible=0;dropTarget=0;points=[[0,0.5],[1,0.5]];portConstraint=eastwest;top=0;left=0;right=0;bottom=1;" parent="2dNWp42R9KnTXTzvP6k_-53" vertex="1">
          <mxGeometry y="30" width="220" height="30" as="geometry" />
        </mxCell>
        <mxCell id="2dNWp42R9KnTXTzvP6k_-55" value="PK" style="shape=partialRectangle;connectable=0;fillColor=none;top=0;left=0;bottom=0;right=0;fontStyle=1;overflow=hidden;whiteSpace=wrap;html=1;" parent="2dNWp42R9KnTXTzvP6k_-54" vertex="1">
          <mxGeometry width="30" height="30" as="geometry">
            <mxRectangle width="30" height="30" as="alternateBounds" />
          </mxGeometry>
        </mxCell>
        <mxCell id="2dNWp42R9KnTXTzvP6k_-56" value="GenreID" style="shape=partialRectangle;connectable=0;fillColor=none;top=0;left=0;bottom=0;right=0;align=left;spacingLeft=6;fontStyle=5;overflow=hidden;whiteSpace=wrap;html=1;" parent="2dNWp42R9KnTXTzvP6k_-54" vertex="1">
          <mxGeometry x="30" width="190" height="30" as="geometry">
            <mxRectangle width="190" height="30" as="alternateBounds" />
          </mxGeometry>
        </mxCell>
        <mxCell id="2dNWp42R9KnTXTzvP6k_-57" value="" style="shape=tableRow;horizontal=0;startSize=0;swimlaneHead=0;swimlaneBody=0;fillColor=none;collapsible=0;dropTarget=0;points=[[0,0.5],[1,0.5]];portConstraint=eastwest;top=0;left=0;right=0;bottom=0;" parent="2dNWp42R9KnTXTzvP6k_-53" vertex="1">
          <mxGeometry y="60" width="220" height="40" as="geometry" />
        </mxCell>
        <mxCell id="2dNWp42R9KnTXTzvP6k_-58" value="" style="shape=partialRectangle;connectable=0;fillColor=none;top=0;left=0;bottom=0;right=0;editable=1;overflow=hidden;whiteSpace=wrap;html=1;" parent="2dNWp42R9KnTXTzvP6k_-57" vertex="1">
          <mxGeometry width="30" height="40" as="geometry">
            <mxRectangle width="30" height="40" as="alternateBounds" />
          </mxGeometry>
        </mxCell>
        <mxCell id="2dNWp42R9KnTXTzvP6k_-59" value="GenreName: TEXT: NOT NULL" style="shape=partialRectangle;connectable=0;fillColor=none;top=0;left=0;bottom=0;right=0;align=left;spacingLeft=6;overflow=hidden;whiteSpace=wrap;html=1;" parent="2dNWp42R9KnTXTzvP6k_-57" vertex="1">
          <mxGeometry x="30" width="190" height="40" as="geometry">
            <mxRectangle width="190" height="40" as="alternateBounds" />
          </mxGeometry>
        </mxCell>
        <mxCell id="2dNWp42R9KnTXTzvP6k_-66" value="MovieGenre" style="shape=table;startSize=30;container=1;collapsible=1;childLayout=tableLayout;fixedRows=1;rowLines=0;fontStyle=1;align=center;resizeLast=1;html=1;whiteSpace=wrap;fillColor=#dae8fc;strokeColor=#6c8ebf;" parent="1" vertex="1">
          <mxGeometry x="1223" y="220" width="240" height="90" as="geometry" />
        </mxCell>
        <mxCell id="2dNWp42R9KnTXTzvP6k_-67" value="" style="shape=tableRow;horizontal=0;startSize=0;swimlaneHead=0;swimlaneBody=0;fillColor=none;collapsible=0;dropTarget=0;points=[[0,0.5],[1,0.5]];portConstraint=eastwest;top=0;left=0;right=0;bottom=0;html=1;" parent="2dNWp42R9KnTXTzvP6k_-66" vertex="1">
          <mxGeometry y="30" width="240" height="30" as="geometry" />
        </mxCell>
        <mxCell id="2dNWp42R9KnTXTzvP6k_-68" value="PK,FK1" style="shape=partialRectangle;connectable=0;fillColor=none;top=0;left=0;bottom=0;right=0;fontStyle=1;overflow=hidden;html=1;whiteSpace=wrap;" parent="2dNWp42R9KnTXTzvP6k_-67" vertex="1">
          <mxGeometry width="60" height="30" as="geometry">
            <mxRectangle width="60" height="30" as="alternateBounds" />
          </mxGeometry>
        </mxCell>
        <mxCell id="2dNWp42R9KnTXTzvP6k_-69" value="MovieID: INTEGER" style="shape=partialRectangle;connectable=0;fillColor=none;top=0;left=0;bottom=0;right=0;align=left;spacingLeft=6;fontStyle=5;overflow=hidden;html=1;whiteSpace=wrap;" parent="2dNWp42R9KnTXTzvP6k_-67" vertex="1">
          <mxGeometry x="60" width="180" height="30" as="geometry">
            <mxRectangle width="180" height="30" as="alternateBounds" />
          </mxGeometry>
        </mxCell>
        <mxCell id="2dNWp42R9KnTXTzvP6k_-70" value="" style="shape=tableRow;horizontal=0;startSize=0;swimlaneHead=0;swimlaneBody=0;fillColor=none;collapsible=0;dropTarget=0;points=[[0,0.5],[1,0.5]];portConstraint=eastwest;top=0;left=0;right=0;bottom=1;html=1;" parent="2dNWp42R9KnTXTzvP6k_-66" vertex="1">
          <mxGeometry y="60" width="240" height="30" as="geometry" />
        </mxCell>
        <mxCell id="2dNWp42R9KnTXTzvP6k_-71" value="PK,FK2" style="shape=partialRectangle;connectable=0;fillColor=none;top=0;left=0;bottom=0;right=0;fontStyle=1;overflow=hidden;html=1;whiteSpace=wrap;" parent="2dNWp42R9KnTXTzvP6k_-70" vertex="1">
          <mxGeometry width="60" height="30" as="geometry">
            <mxRectangle width="60" height="30" as="alternateBounds" />
          </mxGeometry>
        </mxCell>
        <mxCell id="2dNWp42R9KnTXTzvP6k_-72" value="GenreID: INTEGER" style="shape=partialRectangle;connectable=0;fillColor=none;top=0;left=0;bottom=0;right=0;align=left;spacingLeft=6;fontStyle=5;overflow=hidden;html=1;whiteSpace=wrap;" parent="2dNWp42R9KnTXTzvP6k_-70" vertex="1">
          <mxGeometry x="60" width="180" height="30" as="geometry">
            <mxRectangle width="180" height="30" as="alternateBounds" />
          </mxGeometry>
        </mxCell>
        <mxCell id="2dNWp42R9KnTXTzvP6k_-83" value="Contains" style="edgeStyle=orthogonalEdgeStyle;fontSize=12;html=1;endArrow=ERzeroToMany;startArrow=ERmandOne;rounded=0;endSize=15;startSize=15;strokeWidth=2;startFill=0;endFill=0;" parent="1" source="2dNWp42R9KnTXTzvP6k_-53" target="2dNWp42R9KnTXTzvP6k_-66" edge="1">
          <mxGeometry x="0.3459" width="100" height="100" relative="1" as="geometry">
            <mxPoint x="2308.05" y="100" as="sourcePoint" />
            <mxPoint x="1893" y="120" as="targetPoint" />
            <Array as="points">
              <mxPoint x="1333" y="50" />
            </Array>
            <mxPoint as="offset" />
          </mxGeometry>
        </mxCell>
        <mxCell id="2dNWp42R9KnTXTzvP6k_-118" value="TVShowGenre" style="shape=table;startSize=30;container=1;collapsible=1;childLayout=tableLayout;fixedRows=1;rowLines=0;fontStyle=1;align=center;resizeLast=1;html=1;whiteSpace=wrap;fillColor=#dae8fc;strokeColor=#6c8ebf;" parent="1" vertex="1">
          <mxGeometry x="1520" y="220" width="240" height="90" as="geometry" />
        </mxCell>
        <mxCell id="2dNWp42R9KnTXTzvP6k_-119" value="" style="shape=tableRow;horizontal=0;startSize=0;swimlaneHead=0;swimlaneBody=0;fillColor=none;collapsible=0;dropTarget=0;points=[[0,0.5],[1,0.5]];portConstraint=eastwest;top=0;left=0;right=0;bottom=0;html=1;" parent="2dNWp42R9KnTXTzvP6k_-118" vertex="1">
          <mxGeometry y="30" width="240" height="30" as="geometry" />
        </mxCell>
        <mxCell id="2dNWp42R9KnTXTzvP6k_-120" value="PK,FK1" style="shape=partialRectangle;connectable=0;fillColor=none;top=0;left=0;bottom=0;right=0;fontStyle=1;overflow=hidden;html=1;whiteSpace=wrap;" parent="2dNWp42R9KnTXTzvP6k_-119" vertex="1">
          <mxGeometry width="60" height="30" as="geometry">
            <mxRectangle width="60" height="30" as="alternateBounds" />
          </mxGeometry>
        </mxCell>
        <mxCell id="2dNWp42R9KnTXTzvP6k_-121" value="TVShowID: INTEGER" style="shape=partialRectangle;connectable=0;fillColor=none;top=0;left=0;bottom=0;right=0;align=left;spacingLeft=6;fontStyle=5;overflow=hidden;html=1;whiteSpace=wrap;" parent="2dNWp42R9KnTXTzvP6k_-119" vertex="1">
          <mxGeometry x="60" width="180" height="30" as="geometry">
            <mxRectangle width="180" height="30" as="alternateBounds" />
          </mxGeometry>
        </mxCell>
        <mxCell id="2dNWp42R9KnTXTzvP6k_-122" value="" style="shape=tableRow;horizontal=0;startSize=0;swimlaneHead=0;swimlaneBody=0;fillColor=none;collapsible=0;dropTarget=0;points=[[0,0.5],[1,0.5]];portConstraint=eastwest;top=0;left=0;right=0;bottom=1;html=1;" parent="2dNWp42R9KnTXTzvP6k_-118" vertex="1">
          <mxGeometry y="60" width="240" height="30" as="geometry" />
        </mxCell>
        <mxCell id="2dNWp42R9KnTXTzvP6k_-123" value="PK,FK2" style="shape=partialRectangle;connectable=0;fillColor=none;top=0;left=0;bottom=0;right=0;fontStyle=1;overflow=hidden;html=1;whiteSpace=wrap;" parent="2dNWp42R9KnTXTzvP6k_-122" vertex="1">
          <mxGeometry width="60" height="30" as="geometry">
            <mxRectangle width="60" height="30" as="alternateBounds" />
          </mxGeometry>
        </mxCell>
        <mxCell id="2dNWp42R9KnTXTzvP6k_-124" value="GenreID: INTEGER" style="shape=partialRectangle;connectable=0;fillColor=none;top=0;left=0;bottom=0;right=0;align=left;spacingLeft=6;fontStyle=5;overflow=hidden;html=1;whiteSpace=wrap;" parent="2dNWp42R9KnTXTzvP6k_-122" vertex="1">
          <mxGeometry x="60" width="180" height="30" as="geometry">
            <mxRectangle width="180" height="30" as="alternateBounds" />
          </mxGeometry>
        </mxCell>
        <mxCell id="tU8N_veyZjzViOFpCoWF-1" value="" style="endArrow=ERmandOne;html=1;rounded=0;strokeWidth=2;startArrow=ERoneToMany;startFill=0;endFill=0;endSize=15;startSize=15;edgeStyle=orthogonalEdgeStyle;" parent="1" source="CMmYyxB9AxRojB-h8BCf-155" target="CMmYyxB9AxRojB-h8BCf-142" edge="1">
          <mxGeometry width="50" height="50" relative="1" as="geometry">
            <mxPoint x="1483" y="591" as="sourcePoint" />
            <mxPoint x="1563" y="431" as="targetPoint" />
            <Array as="points">
              <mxPoint x="1573" y="500" />
              <mxPoint x="1573" y="500" />
            </Array>
          </mxGeometry>
        </mxCell>
        <mxCell id="ddrB5zwnWM9dMD7mT3Nc-1" value="Has" style="edgeLabel;html=1;align=center;verticalAlign=middle;resizable=0;points=[];" parent="tU8N_veyZjzViOFpCoWF-1" vertex="1" connectable="0">
          <mxGeometry x="0.1111" y="1" relative="1" as="geometry">
            <mxPoint as="offset" />
          </mxGeometry>
        </mxCell>
        <mxCell id="tU8N_veyZjzViOFpCoWF-3" value="" style="endArrow=ERoneToMany;html=1;rounded=0;startArrow=ERmandOne;startFill=0;endFill=0;strokeWidth=2;endSize=15;startSize=15;edgeStyle=orthogonalEdgeStyle;" parent="1" source="2dNWp42R9KnTXTzvP6k_-37" target="2dNWp42R9KnTXTzvP6k_-66" edge="1">
          <mxGeometry width="50" height="50" relative="1" as="geometry">
            <mxPoint x="1403" y="345" as="sourcePoint" />
            <mxPoint x="1593" y="190" as="targetPoint" />
            <Array as="points">
              <mxPoint x="948" y="350" />
              <mxPoint x="1343" y="350" />
            </Array>
          </mxGeometry>
        </mxCell>
        <mxCell id="ddrB5zwnWM9dMD7mT3Nc-4" value="Falls under" style="edgeLabel;html=1;align=center;verticalAlign=middle;resizable=0;points=[];" parent="tU8N_veyZjzViOFpCoWF-3" vertex="1" connectable="0">
          <mxGeometry x="-0.2679" relative="1" as="geometry">
            <mxPoint x="-26" as="offset" />
          </mxGeometry>
        </mxCell>
        <mxCell id="ddrB5zwnWM9dMD7mT3Nc-5" value="Director" style="shape=table;startSize=30;container=1;collapsible=1;childLayout=tableLayout;fixedRows=1;rowLines=0;fontStyle=1;align=center;resizeLast=1;html=1;fillColor=#f8cecc;strokeColor=#b85450;" parent="1" vertex="1">
          <mxGeometry x="1813" y="1030" width="250" height="120" as="geometry" />
        </mxCell>
        <mxCell id="ddrB5zwnWM9dMD7mT3Nc-6" value="" style="shape=tableRow;horizontal=0;startSize=0;swimlaneHead=0;swimlaneBody=0;fillColor=none;collapsible=0;dropTarget=0;points=[[0,0.5],[1,0.5]];portConstraint=eastwest;top=0;left=0;right=0;bottom=1;" parent="ddrB5zwnWM9dMD7mT3Nc-5" vertex="1">
          <mxGeometry y="30" width="250" height="30" as="geometry" />
        </mxCell>
        <mxCell id="ddrB5zwnWM9dMD7mT3Nc-7" value="PK" style="shape=partialRectangle;connectable=0;fillColor=none;top=0;left=0;bottom=0;right=0;fontStyle=1;overflow=hidden;whiteSpace=wrap;html=1;" parent="ddrB5zwnWM9dMD7mT3Nc-6" vertex="1">
          <mxGeometry width="30" height="30" as="geometry">
            <mxRectangle width="30" height="30" as="alternateBounds" />
          </mxGeometry>
        </mxCell>
        <mxCell id="ddrB5zwnWM9dMD7mT3Nc-8" value="DirectorID: INTEGER" style="shape=partialRectangle;connectable=0;fillColor=none;top=0;left=0;bottom=0;right=0;align=left;spacingLeft=6;fontStyle=5;overflow=hidden;whiteSpace=wrap;html=1;" parent="ddrB5zwnWM9dMD7mT3Nc-6" vertex="1">
          <mxGeometry x="30" width="220" height="30" as="geometry">
            <mxRectangle width="220" height="30" as="alternateBounds" />
          </mxGeometry>
        </mxCell>
        <mxCell id="ddrB5zwnWM9dMD7mT3Nc-9" value="" style="shape=tableRow;horizontal=0;startSize=0;swimlaneHead=0;swimlaneBody=0;fillColor=none;collapsible=0;dropTarget=0;points=[[0,0.5],[1,0.5]];portConstraint=eastwest;top=0;left=0;right=0;bottom=0;" parent="ddrB5zwnWM9dMD7mT3Nc-5" vertex="1">
          <mxGeometry y="60" width="250" height="30" as="geometry" />
        </mxCell>
        <mxCell id="ddrB5zwnWM9dMD7mT3Nc-10" value="" style="shape=partialRectangle;connectable=0;fillColor=none;top=0;left=0;bottom=0;right=0;editable=1;overflow=hidden;whiteSpace=wrap;html=1;" parent="ddrB5zwnWM9dMD7mT3Nc-9" vertex="1">
          <mxGeometry width="30" height="30" as="geometry">
            <mxRectangle width="30" height="30" as="alternateBounds" />
          </mxGeometry>
        </mxCell>
        <mxCell id="ddrB5zwnWM9dMD7mT3Nc-11" value="FirstName: TEXT: NOT NULL" style="shape=partialRectangle;connectable=0;fillColor=none;top=0;left=0;bottom=0;right=0;align=left;spacingLeft=6;overflow=hidden;whiteSpace=wrap;html=1;" parent="ddrB5zwnWM9dMD7mT3Nc-9" vertex="1">
          <mxGeometry x="30" width="220" height="30" as="geometry">
            <mxRectangle width="220" height="30" as="alternateBounds" />
          </mxGeometry>
        </mxCell>
        <mxCell id="ddrB5zwnWM9dMD7mT3Nc-12" value="" style="shape=tableRow;horizontal=0;startSize=0;swimlaneHead=0;swimlaneBody=0;fillColor=none;collapsible=0;dropTarget=0;points=[[0,0.5],[1,0.5]];portConstraint=eastwest;top=0;left=0;right=0;bottom=0;" parent="ddrB5zwnWM9dMD7mT3Nc-5" vertex="1">
          <mxGeometry y="90" width="250" height="30" as="geometry" />
        </mxCell>
        <mxCell id="ddrB5zwnWM9dMD7mT3Nc-13" value="" style="shape=partialRectangle;connectable=0;fillColor=none;top=0;left=0;bottom=0;right=0;editable=1;overflow=hidden;whiteSpace=wrap;html=1;" parent="ddrB5zwnWM9dMD7mT3Nc-12" vertex="1">
          <mxGeometry width="30" height="30" as="geometry">
            <mxRectangle width="30" height="30" as="alternateBounds" />
          </mxGeometry>
        </mxCell>
        <mxCell id="ddrB5zwnWM9dMD7mT3Nc-14" value="LastName: TEXT: NOT NULL" style="shape=partialRectangle;connectable=0;fillColor=none;top=0;left=0;bottom=0;right=0;align=left;spacingLeft=6;overflow=hidden;whiteSpace=wrap;html=1;" parent="ddrB5zwnWM9dMD7mT3Nc-12" vertex="1">
          <mxGeometry x="30" width="220" height="30" as="geometry">
            <mxRectangle width="220" height="30" as="alternateBounds" />
          </mxGeometry>
        </mxCell>
        <mxCell id="ddrB5zwnWM9dMD7mT3Nc-96" value="TVShowActor" style="shape=table;startSize=30;container=1;collapsible=1;childLayout=tableLayout;fixedRows=1;rowLines=0;fontStyle=1;align=center;resizeLast=1;html=1;whiteSpace=wrap;fillColor=#dae8fc;strokeColor=#6c8ebf;" parent="1" vertex="1">
          <mxGeometry x="551" y="822" width="210" height="90" as="geometry" />
        </mxCell>
        <mxCell id="ddrB5zwnWM9dMD7mT3Nc-97" value="" style="shape=tableRow;horizontal=0;startSize=0;swimlaneHead=0;swimlaneBody=0;fillColor=none;collapsible=0;dropTarget=0;points=[[0,0.5],[1,0.5]];portConstraint=eastwest;top=0;left=0;right=0;bottom=0;html=1;" parent="ddrB5zwnWM9dMD7mT3Nc-96" vertex="1">
          <mxGeometry y="30" width="210" height="30" as="geometry" />
        </mxCell>
        <mxCell id="ddrB5zwnWM9dMD7mT3Nc-98" value="PK,FK1" style="shape=partialRectangle;connectable=0;fillColor=none;top=0;left=0;bottom=0;right=0;fontStyle=1;overflow=hidden;html=1;whiteSpace=wrap;" parent="ddrB5zwnWM9dMD7mT3Nc-97" vertex="1">
          <mxGeometry width="60" height="30" as="geometry">
            <mxRectangle width="60" height="30" as="alternateBounds" />
          </mxGeometry>
        </mxCell>
        <mxCell id="ddrB5zwnWM9dMD7mT3Nc-99" value="TVShowID: INTEGER" style="shape=partialRectangle;connectable=0;fillColor=none;top=0;left=0;bottom=0;right=0;align=left;spacingLeft=6;fontStyle=5;overflow=hidden;html=1;whiteSpace=wrap;" parent="ddrB5zwnWM9dMD7mT3Nc-97" vertex="1">
          <mxGeometry x="60" width="150" height="30" as="geometry">
            <mxRectangle width="150" height="30" as="alternateBounds" />
          </mxGeometry>
        </mxCell>
        <mxCell id="ddrB5zwnWM9dMD7mT3Nc-100" value="" style="shape=tableRow;horizontal=0;startSize=0;swimlaneHead=0;swimlaneBody=0;fillColor=none;collapsible=0;dropTarget=0;points=[[0,0.5],[1,0.5]];portConstraint=eastwest;top=0;left=0;right=0;bottom=1;html=1;" parent="ddrB5zwnWM9dMD7mT3Nc-96" vertex="1">
          <mxGeometry y="60" width="210" height="30" as="geometry" />
        </mxCell>
        <mxCell id="ddrB5zwnWM9dMD7mT3Nc-101" value="PK,FK2" style="shape=partialRectangle;connectable=0;fillColor=none;top=0;left=0;bottom=0;right=0;fontStyle=1;overflow=hidden;html=1;whiteSpace=wrap;" parent="ddrB5zwnWM9dMD7mT3Nc-100" vertex="1">
          <mxGeometry width="60" height="30" as="geometry">
            <mxRectangle width="60" height="30" as="alternateBounds" />
          </mxGeometry>
        </mxCell>
        <mxCell id="ddrB5zwnWM9dMD7mT3Nc-102" value="ActorID: INTEGER" style="shape=partialRectangle;connectable=0;fillColor=none;top=0;left=0;bottom=0;right=0;align=left;spacingLeft=6;fontStyle=5;overflow=hidden;html=1;whiteSpace=wrap;" parent="ddrB5zwnWM9dMD7mT3Nc-100" vertex="1">
          <mxGeometry x="60" width="150" height="30" as="geometry">
            <mxRectangle width="150" height="30" as="alternateBounds" />
          </mxGeometry>
        </mxCell>
        <mxCell id="ddrB5zwnWM9dMD7mT3Nc-109" value="MovieActor" style="shape=table;startSize=30;container=1;collapsible=1;childLayout=tableLayout;fixedRows=1;rowLines=0;fontStyle=1;align=center;resizeLast=1;html=1;whiteSpace=wrap;fillColor=#dae8fc;strokeColor=#6c8ebf;" parent="1" vertex="1">
          <mxGeometry x="325" y="822" width="200" height="90" as="geometry" />
        </mxCell>
        <mxCell id="ddrB5zwnWM9dMD7mT3Nc-110" value="" style="shape=tableRow;horizontal=0;startSize=0;swimlaneHead=0;swimlaneBody=0;fillColor=none;collapsible=0;dropTarget=0;points=[[0,0.5],[1,0.5]];portConstraint=eastwest;top=0;left=0;right=0;bottom=0;html=1;" parent="ddrB5zwnWM9dMD7mT3Nc-109" vertex="1">
          <mxGeometry y="30" width="200" height="30" as="geometry" />
        </mxCell>
        <mxCell id="ddrB5zwnWM9dMD7mT3Nc-111" value="PK,FK1" style="shape=partialRectangle;connectable=0;fillColor=none;top=0;left=0;bottom=0;right=0;fontStyle=1;overflow=hidden;html=1;whiteSpace=wrap;" parent="ddrB5zwnWM9dMD7mT3Nc-110" vertex="1">
          <mxGeometry width="60" height="30" as="geometry">
            <mxRectangle width="60" height="30" as="alternateBounds" />
          </mxGeometry>
        </mxCell>
        <mxCell id="ddrB5zwnWM9dMD7mT3Nc-112" value="MovieID: INTEGER" style="shape=partialRectangle;connectable=0;fillColor=none;top=0;left=0;bottom=0;right=0;align=left;spacingLeft=6;fontStyle=5;overflow=hidden;html=1;whiteSpace=wrap;" parent="ddrB5zwnWM9dMD7mT3Nc-110" vertex="1">
          <mxGeometry x="60" width="140" height="30" as="geometry">
            <mxRectangle width="140" height="30" as="alternateBounds" />
          </mxGeometry>
        </mxCell>
        <mxCell id="ddrB5zwnWM9dMD7mT3Nc-113" value="" style="shape=tableRow;horizontal=0;startSize=0;swimlaneHead=0;swimlaneBody=0;fillColor=none;collapsible=0;dropTarget=0;points=[[0,0.5],[1,0.5]];portConstraint=eastwest;top=0;left=0;right=0;bottom=1;html=1;" parent="ddrB5zwnWM9dMD7mT3Nc-109" vertex="1">
          <mxGeometry y="60" width="200" height="30" as="geometry" />
        </mxCell>
        <mxCell id="ddrB5zwnWM9dMD7mT3Nc-114" value="PK,FK2" style="shape=partialRectangle;connectable=0;fillColor=none;top=0;left=0;bottom=0;right=0;fontStyle=1;overflow=hidden;html=1;whiteSpace=wrap;" parent="ddrB5zwnWM9dMD7mT3Nc-113" vertex="1">
          <mxGeometry width="60" height="30" as="geometry">
            <mxRectangle width="60" height="30" as="alternateBounds" />
          </mxGeometry>
        </mxCell>
        <mxCell id="ddrB5zwnWM9dMD7mT3Nc-115" value="ActorID: INTEGER" style="shape=partialRectangle;connectable=0;fillColor=none;top=0;left=0;bottom=0;right=0;align=left;spacingLeft=6;fontStyle=5;overflow=hidden;html=1;whiteSpace=wrap;" parent="ddrB5zwnWM9dMD7mT3Nc-113" vertex="1">
          <mxGeometry x="60" width="140" height="30" as="geometry">
            <mxRectangle width="140" height="30" as="alternateBounds" />
          </mxGeometry>
        </mxCell>
        <mxCell id="ddrB5zwnWM9dMD7mT3Nc-116" value="EpisodeActor" style="shape=table;startSize=30;container=1;collapsible=1;childLayout=tableLayout;fixedRows=1;rowLines=0;fontStyle=1;align=center;resizeLast=1;html=1;whiteSpace=wrap;fillColor=#dae8fc;strokeColor=#6c8ebf;" parent="1" vertex="1">
          <mxGeometry x="785.5" y="822" width="200" height="90" as="geometry" />
        </mxCell>
        <mxCell id="ddrB5zwnWM9dMD7mT3Nc-117" value="" style="shape=tableRow;horizontal=0;startSize=0;swimlaneHead=0;swimlaneBody=0;fillColor=none;collapsible=0;dropTarget=0;points=[[0,0.5],[1,0.5]];portConstraint=eastwest;top=0;left=0;right=0;bottom=0;html=1;" parent="ddrB5zwnWM9dMD7mT3Nc-116" vertex="1">
          <mxGeometry y="30" width="200" height="30" as="geometry" />
        </mxCell>
        <mxCell id="ddrB5zwnWM9dMD7mT3Nc-118" value="PK,FK1" style="shape=partialRectangle;connectable=0;fillColor=none;top=0;left=0;bottom=0;right=0;fontStyle=1;overflow=hidden;html=1;whiteSpace=wrap;" parent="ddrB5zwnWM9dMD7mT3Nc-117" vertex="1">
          <mxGeometry width="60" height="30" as="geometry">
            <mxRectangle width="60" height="30" as="alternateBounds" />
          </mxGeometry>
        </mxCell>
        <mxCell id="ddrB5zwnWM9dMD7mT3Nc-119" value="EpisodeID: INTEGER" style="shape=partialRectangle;connectable=0;fillColor=none;top=0;left=0;bottom=0;right=0;align=left;spacingLeft=6;fontStyle=5;overflow=hidden;html=1;whiteSpace=wrap;" parent="ddrB5zwnWM9dMD7mT3Nc-117" vertex="1">
          <mxGeometry x="60" width="140" height="30" as="geometry">
            <mxRectangle width="140" height="30" as="alternateBounds" />
          </mxGeometry>
        </mxCell>
        <mxCell id="ddrB5zwnWM9dMD7mT3Nc-120" value="" style="shape=tableRow;horizontal=0;startSize=0;swimlaneHead=0;swimlaneBody=0;fillColor=none;collapsible=0;dropTarget=0;points=[[0,0.5],[1,0.5]];portConstraint=eastwest;top=0;left=0;right=0;bottom=1;html=1;" parent="ddrB5zwnWM9dMD7mT3Nc-116" vertex="1">
          <mxGeometry y="60" width="200" height="30" as="geometry" />
        </mxCell>
        <mxCell id="ddrB5zwnWM9dMD7mT3Nc-121" value="PK,FK2" style="shape=partialRectangle;connectable=0;fillColor=none;top=0;left=0;bottom=0;right=0;fontStyle=1;overflow=hidden;html=1;whiteSpace=wrap;" parent="ddrB5zwnWM9dMD7mT3Nc-120" vertex="1">
          <mxGeometry width="60" height="30" as="geometry">
            <mxRectangle width="60" height="30" as="alternateBounds" />
          </mxGeometry>
        </mxCell>
        <mxCell id="ddrB5zwnWM9dMD7mT3Nc-122" value="ActorID: INTEGER" style="shape=partialRectangle;connectable=0;fillColor=none;top=0;left=0;bottom=0;right=0;align=left;spacingLeft=6;fontStyle=5;overflow=hidden;html=1;whiteSpace=wrap;" parent="ddrB5zwnWM9dMD7mT3Nc-120" vertex="1">
          <mxGeometry x="60" width="140" height="30" as="geometry">
            <mxRectangle width="140" height="30" as="alternateBounds" />
          </mxGeometry>
        </mxCell>
        <mxCell id="ddrB5zwnWM9dMD7mT3Nc-124" value="TVShowDirector" style="shape=table;startSize=30;container=1;collapsible=1;childLayout=tableLayout;fixedRows=1;rowLines=0;fontStyle=1;align=center;resizeLast=1;html=1;whiteSpace=wrap;fillColor=#dae8fc;strokeColor=#6c8ebf;" parent="1" vertex="1">
          <mxGeometry x="1833" y="840" width="210" height="90" as="geometry" />
        </mxCell>
        <mxCell id="ddrB5zwnWM9dMD7mT3Nc-125" value="" style="shape=tableRow;horizontal=0;startSize=0;swimlaneHead=0;swimlaneBody=0;fillColor=none;collapsible=0;dropTarget=0;points=[[0,0.5],[1,0.5]];portConstraint=eastwest;top=0;left=0;right=0;bottom=0;html=1;" parent="ddrB5zwnWM9dMD7mT3Nc-124" vertex="1">
          <mxGeometry y="30" width="210" height="30" as="geometry" />
        </mxCell>
        <mxCell id="ddrB5zwnWM9dMD7mT3Nc-126" value="PK,FK1" style="shape=partialRectangle;connectable=0;fillColor=none;top=0;left=0;bottom=0;right=0;fontStyle=1;overflow=hidden;html=1;whiteSpace=wrap;" parent="ddrB5zwnWM9dMD7mT3Nc-125" vertex="1">
          <mxGeometry width="60" height="30" as="geometry">
            <mxRectangle width="60" height="30" as="alternateBounds" />
          </mxGeometry>
        </mxCell>
        <mxCell id="ddrB5zwnWM9dMD7mT3Nc-127" value="TVShowID: INTEGER" style="shape=partialRectangle;connectable=0;fillColor=none;top=0;left=0;bottom=0;right=0;align=left;spacingLeft=6;fontStyle=5;overflow=hidden;html=1;whiteSpace=wrap;" parent="ddrB5zwnWM9dMD7mT3Nc-125" vertex="1">
          <mxGeometry x="60" width="150" height="30" as="geometry">
            <mxRectangle width="150" height="30" as="alternateBounds" />
          </mxGeometry>
        </mxCell>
        <mxCell id="ddrB5zwnWM9dMD7mT3Nc-128" value="" style="shape=tableRow;horizontal=0;startSize=0;swimlaneHead=0;swimlaneBody=0;fillColor=none;collapsible=0;dropTarget=0;points=[[0,0.5],[1,0.5]];portConstraint=eastwest;top=0;left=0;right=0;bottom=1;html=1;" parent="ddrB5zwnWM9dMD7mT3Nc-124" vertex="1">
          <mxGeometry y="60" width="210" height="30" as="geometry" />
        </mxCell>
        <mxCell id="ddrB5zwnWM9dMD7mT3Nc-129" value="PK,FK2" style="shape=partialRectangle;connectable=0;fillColor=none;top=0;left=0;bottom=0;right=0;fontStyle=1;overflow=hidden;html=1;whiteSpace=wrap;" parent="ddrB5zwnWM9dMD7mT3Nc-128" vertex="1">
          <mxGeometry width="60" height="30" as="geometry">
            <mxRectangle width="60" height="30" as="alternateBounds" />
          </mxGeometry>
        </mxCell>
        <mxCell id="ddrB5zwnWM9dMD7mT3Nc-130" value="DirectorID: INTEGER" style="shape=partialRectangle;connectable=0;fillColor=none;top=0;left=0;bottom=0;right=0;align=left;spacingLeft=6;fontStyle=5;overflow=hidden;html=1;whiteSpace=wrap;" parent="ddrB5zwnWM9dMD7mT3Nc-128" vertex="1">
          <mxGeometry x="60" width="150" height="30" as="geometry">
            <mxRectangle width="150" height="30" as="alternateBounds" />
          </mxGeometry>
        </mxCell>
        <mxCell id="ddrB5zwnWM9dMD7mT3Nc-131" value="EpisodeDirector" style="shape=table;startSize=30;container=1;collapsible=1;childLayout=tableLayout;fixedRows=1;rowLines=0;fontStyle=1;align=center;resizeLast=1;html=1;whiteSpace=wrap;fillColor=#dae8fc;strokeColor=#6c8ebf;" parent="1" vertex="1">
          <mxGeometry x="2070" y="840" width="210" height="90" as="geometry" />
        </mxCell>
        <mxCell id="ddrB5zwnWM9dMD7mT3Nc-132" value="" style="shape=tableRow;horizontal=0;startSize=0;swimlaneHead=0;swimlaneBody=0;fillColor=none;collapsible=0;dropTarget=0;points=[[0,0.5],[1,0.5]];portConstraint=eastwest;top=0;left=0;right=0;bottom=0;html=1;" parent="ddrB5zwnWM9dMD7mT3Nc-131" vertex="1">
          <mxGeometry y="30" width="210" height="30" as="geometry" />
        </mxCell>
        <mxCell id="ddrB5zwnWM9dMD7mT3Nc-133" value="PK,FK1" style="shape=partialRectangle;connectable=0;fillColor=none;top=0;left=0;bottom=0;right=0;fontStyle=1;overflow=hidden;html=1;whiteSpace=wrap;" parent="ddrB5zwnWM9dMD7mT3Nc-132" vertex="1">
          <mxGeometry width="60" height="30" as="geometry">
            <mxRectangle width="60" height="30" as="alternateBounds" />
          </mxGeometry>
        </mxCell>
        <mxCell id="ddrB5zwnWM9dMD7mT3Nc-134" value="EpisodeID: INTEGER" style="shape=partialRectangle;connectable=0;fillColor=none;top=0;left=0;bottom=0;right=0;align=left;spacingLeft=6;fontStyle=5;overflow=hidden;html=1;whiteSpace=wrap;" parent="ddrB5zwnWM9dMD7mT3Nc-132" vertex="1">
          <mxGeometry x="60" width="150" height="30" as="geometry">
            <mxRectangle width="150" height="30" as="alternateBounds" />
          </mxGeometry>
        </mxCell>
        <mxCell id="ddrB5zwnWM9dMD7mT3Nc-135" value="" style="shape=tableRow;horizontal=0;startSize=0;swimlaneHead=0;swimlaneBody=0;fillColor=none;collapsible=0;dropTarget=0;points=[[0,0.5],[1,0.5]];portConstraint=eastwest;top=0;left=0;right=0;bottom=1;html=1;" parent="ddrB5zwnWM9dMD7mT3Nc-131" vertex="1">
          <mxGeometry y="60" width="210" height="30" as="geometry" />
        </mxCell>
        <mxCell id="ddrB5zwnWM9dMD7mT3Nc-136" value="PK,FK2" style="shape=partialRectangle;connectable=0;fillColor=none;top=0;left=0;bottom=0;right=0;fontStyle=1;overflow=hidden;html=1;whiteSpace=wrap;" parent="ddrB5zwnWM9dMD7mT3Nc-135" vertex="1">
          <mxGeometry width="60" height="30" as="geometry">
            <mxRectangle width="60" height="30" as="alternateBounds" />
          </mxGeometry>
        </mxCell>
        <mxCell id="ddrB5zwnWM9dMD7mT3Nc-137" value="DirectorID: INTEGER" style="shape=partialRectangle;connectable=0;fillColor=none;top=0;left=0;bottom=0;right=0;align=left;spacingLeft=6;fontStyle=5;overflow=hidden;html=1;whiteSpace=wrap;" parent="ddrB5zwnWM9dMD7mT3Nc-135" vertex="1">
          <mxGeometry x="60" width="150" height="30" as="geometry">
            <mxRectangle width="150" height="30" as="alternateBounds" />
          </mxGeometry>
        </mxCell>
        <mxCell id="ddrB5zwnWM9dMD7mT3Nc-138" value="MovieDirector" style="shape=table;startSize=30;container=1;collapsible=1;childLayout=tableLayout;fixedRows=1;rowLines=0;fontStyle=1;align=center;resizeLast=1;html=1;whiteSpace=wrap;fillColor=#dae8fc;strokeColor=#6c8ebf;" parent="1" vertex="1">
          <mxGeometry x="1600" y="840" width="210" height="90" as="geometry" />
        </mxCell>
        <mxCell id="ddrB5zwnWM9dMD7mT3Nc-139" value="" style="shape=tableRow;horizontal=0;startSize=0;swimlaneHead=0;swimlaneBody=0;fillColor=none;collapsible=0;dropTarget=0;points=[[0,0.5],[1,0.5]];portConstraint=eastwest;top=0;left=0;right=0;bottom=0;html=1;" parent="ddrB5zwnWM9dMD7mT3Nc-138" vertex="1">
          <mxGeometry y="30" width="210" height="30" as="geometry" />
        </mxCell>
        <mxCell id="ddrB5zwnWM9dMD7mT3Nc-140" value="PK,FK1" style="shape=partialRectangle;connectable=0;fillColor=none;top=0;left=0;bottom=0;right=0;fontStyle=1;overflow=hidden;html=1;whiteSpace=wrap;" parent="ddrB5zwnWM9dMD7mT3Nc-139" vertex="1">
          <mxGeometry width="60" height="30" as="geometry">
            <mxRectangle width="60" height="30" as="alternateBounds" />
          </mxGeometry>
        </mxCell>
        <mxCell id="ddrB5zwnWM9dMD7mT3Nc-141" value="MovieID: INTEGER" style="shape=partialRectangle;connectable=0;fillColor=none;top=0;left=0;bottom=0;right=0;align=left;spacingLeft=6;fontStyle=5;overflow=hidden;html=1;whiteSpace=wrap;" parent="ddrB5zwnWM9dMD7mT3Nc-139" vertex="1">
          <mxGeometry x="60" width="150" height="30" as="geometry">
            <mxRectangle width="150" height="30" as="alternateBounds" />
          </mxGeometry>
        </mxCell>
        <mxCell id="ddrB5zwnWM9dMD7mT3Nc-142" value="" style="shape=tableRow;horizontal=0;startSize=0;swimlaneHead=0;swimlaneBody=0;fillColor=none;collapsible=0;dropTarget=0;points=[[0,0.5],[1,0.5]];portConstraint=eastwest;top=0;left=0;right=0;bottom=1;html=1;" parent="ddrB5zwnWM9dMD7mT3Nc-138" vertex="1">
          <mxGeometry y="60" width="210" height="30" as="geometry" />
        </mxCell>
        <mxCell id="ddrB5zwnWM9dMD7mT3Nc-143" value="PK,FK2" style="shape=partialRectangle;connectable=0;fillColor=none;top=0;left=0;bottom=0;right=0;fontStyle=1;overflow=hidden;html=1;whiteSpace=wrap;" parent="ddrB5zwnWM9dMD7mT3Nc-142" vertex="1">
          <mxGeometry width="60" height="30" as="geometry">
            <mxRectangle width="60" height="30" as="alternateBounds" />
          </mxGeometry>
        </mxCell>
        <mxCell id="ddrB5zwnWM9dMD7mT3Nc-144" value="DirectorID: INTEGER" style="shape=partialRectangle;connectable=0;fillColor=none;top=0;left=0;bottom=0;right=0;align=left;spacingLeft=6;fontStyle=5;overflow=hidden;html=1;whiteSpace=wrap;" parent="ddrB5zwnWM9dMD7mT3Nc-142" vertex="1">
          <mxGeometry x="60" width="150" height="30" as="geometry">
            <mxRectangle width="150" height="30" as="alternateBounds" />
          </mxGeometry>
        </mxCell>
        <mxCell id="ddrB5zwnWM9dMD7mT3Nc-145" value="" style="edgeStyle=orthogonalEdgeStyle;fontSize=12;html=1;endArrow=ERzeroToMany;startArrow=ERmandOne;rounded=0;strokeWidth=2;endSize=15;startSize=15;exitX=0.5;exitY=0;exitDx=0;exitDy=0;" parent="1" source="ddrB5zwnWM9dMD7mT3Nc-5" target="ddrB5zwnWM9dMD7mT3Nc-124" edge="1">
          <mxGeometry width="100" height="100" relative="1" as="geometry">
            <mxPoint x="1608" y="1110" as="sourcePoint" />
            <mxPoint x="1708" y="1010" as="targetPoint" />
          </mxGeometry>
        </mxCell>
        <mxCell id="ddrB5zwnWM9dMD7mT3Nc-282" value="&lt;font style=&quot;font-size: 15px;&quot;&gt;Contains&lt;/font&gt;" style="edgeLabel;html=1;align=center;verticalAlign=middle;resizable=0;points=[];" parent="ddrB5zwnWM9dMD7mT3Nc-145" vertex="1" connectable="0">
          <mxGeometry x="-0.02" y="4" relative="1" as="geometry">
            <mxPoint as="offset" />
          </mxGeometry>
        </mxCell>
        <mxCell id="ddrB5zwnWM9dMD7mT3Nc-146" value="" style="edgeStyle=orthogonalEdgeStyle;fontSize=12;html=1;endArrow=ERzeroToMany;startArrow=ERmandOne;rounded=0;strokeWidth=2;endSize=15;startSize=15;exitX=0.75;exitY=0;exitDx=0;exitDy=0;" parent="1" source="ddrB5zwnWM9dMD7mT3Nc-5" target="ddrB5zwnWM9dMD7mT3Nc-131" edge="1">
          <mxGeometry width="100" height="100" relative="1" as="geometry">
            <mxPoint x="2175" y="1030" as="sourcePoint" />
            <mxPoint x="1868" y="900" as="targetPoint" />
          </mxGeometry>
        </mxCell>
        <mxCell id="ddrB5zwnWM9dMD7mT3Nc-281" value="&lt;font style=&quot;font-size: 15px;&quot;&gt;Contains&lt;/font&gt;" style="edgeLabel;html=1;align=center;verticalAlign=middle;resizable=0;points=[];" parent="ddrB5zwnWM9dMD7mT3Nc-146" vertex="1" connectable="0">
          <mxGeometry x="0.0018" relative="1" as="geometry">
            <mxPoint x="1" as="offset" />
          </mxGeometry>
        </mxCell>
        <mxCell id="ddrB5zwnWM9dMD7mT3Nc-147" value="" style="edgeStyle=orthogonalEdgeStyle;fontSize=12;html=1;endArrow=ERzeroToMany;startArrow=ERmandOne;rounded=0;strokeWidth=2;endSize=15;startSize=15;exitX=0.25;exitY=0;exitDx=0;exitDy=0;" parent="1" source="ddrB5zwnWM9dMD7mT3Nc-5" target="ddrB5zwnWM9dMD7mT3Nc-138" edge="1">
          <mxGeometry width="100" height="100" relative="1" as="geometry">
            <mxPoint x="1615" y="1020" as="sourcePoint" />
            <mxPoint x="1968" y="910" as="targetPoint" />
          </mxGeometry>
        </mxCell>
        <mxCell id="ddrB5zwnWM9dMD7mT3Nc-284" value="&lt;font style=&quot;font-size: 15px;&quot;&gt;Contains&lt;/font&gt;" style="edgeLabel;html=1;align=center;verticalAlign=middle;resizable=0;points=[];" parent="ddrB5zwnWM9dMD7mT3Nc-147" vertex="1" connectable="0">
          <mxGeometry x="0.1054" y="-4" relative="1" as="geometry">
            <mxPoint x="1" as="offset" />
          </mxGeometry>
        </mxCell>
        <mxCell id="ddrB5zwnWM9dMD7mT3Nc-148" value="" style="edgeStyle=orthogonalEdgeStyle;fontSize=12;html=1;endArrow=ERzeroToMany;startArrow=ERmandOne;rounded=0;strokeWidth=2;endSize=15;startSize=15;exitX=0.5;exitY=0;exitDx=0;exitDy=0;" parent="1" source="CMmYyxB9AxRojB-h8BCf-171" target="ddrB5zwnWM9dMD7mT3Nc-96" edge="1">
          <mxGeometry width="100" height="100" relative="1" as="geometry">
            <mxPoint x="990" y="1000" as="sourcePoint" />
            <mxPoint x="476" y="842" as="targetPoint" />
          </mxGeometry>
        </mxCell>
        <mxCell id="ddrB5zwnWM9dMD7mT3Nc-275" value="&lt;font style=&quot;font-size: 15px;&quot;&gt;Contains&lt;/font&gt;" style="edgeLabel;html=1;align=center;verticalAlign=middle;resizable=0;points=[];" parent="ddrB5zwnWM9dMD7mT3Nc-148" vertex="1" connectable="0">
          <mxGeometry x="-0.06" y="4" relative="1" as="geometry">
            <mxPoint as="offset" />
          </mxGeometry>
        </mxCell>
        <mxCell id="ddrB5zwnWM9dMD7mT3Nc-149" value="" style="edgeStyle=orthogonalEdgeStyle;fontSize=12;html=1;endArrow=ERzeroToMany;startArrow=ERmandOne;rounded=0;strokeWidth=2;endSize=15;startSize=15;exitX=0.75;exitY=0;exitDx=0;exitDy=0;" parent="1" source="CMmYyxB9AxRojB-h8BCf-171" target="ddrB5zwnWM9dMD7mT3Nc-116" edge="1">
          <mxGeometry width="100" height="100" relative="1" as="geometry">
            <mxPoint x="930" y="1012" as="sourcePoint" />
            <mxPoint x="486" y="842" as="targetPoint" />
          </mxGeometry>
        </mxCell>
        <mxCell id="ddrB5zwnWM9dMD7mT3Nc-274" value="&lt;font style=&quot;font-size: 15px;&quot;&gt;Contains&lt;/font&gt;" style="edgeLabel;html=1;align=center;verticalAlign=middle;resizable=0;points=[];" parent="ddrB5zwnWM9dMD7mT3Nc-149" vertex="1" connectable="0">
          <mxGeometry x="0.0625" y="-5" relative="1" as="geometry">
            <mxPoint y="-7" as="offset" />
          </mxGeometry>
        </mxCell>
        <mxCell id="ddrB5zwnWM9dMD7mT3Nc-150" value="" style="edgeStyle=orthogonalEdgeStyle;fontSize=12;html=1;endArrow=ERzeroToMany;startArrow=ERmandOne;rounded=0;strokeWidth=2;endSize=15;startSize=15;exitX=0.25;exitY=0;exitDx=0;exitDy=0;" parent="1" source="CMmYyxB9AxRojB-h8BCf-171" target="ddrB5zwnWM9dMD7mT3Nc-109" edge="1">
          <mxGeometry width="100" height="100" relative="1" as="geometry">
            <mxPoint x="1196" y="1087" as="sourcePoint" />
            <mxPoint x="966" y="987" as="targetPoint" />
          </mxGeometry>
        </mxCell>
        <mxCell id="ddrB5zwnWM9dMD7mT3Nc-276" value="&lt;font style=&quot;font-size: 15px;&quot;&gt;Contains&lt;/font&gt;" style="edgeLabel;html=1;align=center;verticalAlign=middle;resizable=0;points=[];" parent="ddrB5zwnWM9dMD7mT3Nc-150" vertex="1" connectable="0">
          <mxGeometry x="0.0786" y="1" relative="1" as="geometry">
            <mxPoint as="offset" />
          </mxGeometry>
        </mxCell>
        <mxCell id="ddrB5zwnWM9dMD7mT3Nc-151" value="Review" style="shape=table;startSize=30;container=1;collapsible=1;childLayout=tableLayout;fixedRows=1;rowLines=0;fontStyle=1;align=center;resizeLast=1;html=1;fillColor=#f8cecc;strokeColor=#b85450;" parent="1" vertex="1">
          <mxGeometry x="1223" y="1390" width="210" height="150" as="geometry" />
        </mxCell>
        <mxCell id="ddrB5zwnWM9dMD7mT3Nc-152" value="" style="shape=tableRow;horizontal=0;startSize=0;swimlaneHead=0;swimlaneBody=0;fillColor=none;collapsible=0;dropTarget=0;points=[[0,0.5],[1,0.5]];portConstraint=eastwest;top=0;left=0;right=0;bottom=1;" parent="ddrB5zwnWM9dMD7mT3Nc-151" vertex="1">
          <mxGeometry y="30" width="210" height="30" as="geometry" />
        </mxCell>
        <mxCell id="ddrB5zwnWM9dMD7mT3Nc-153" value="PK" style="shape=partialRectangle;connectable=0;fillColor=none;top=0;left=0;bottom=0;right=0;fontStyle=1;overflow=hidden;whiteSpace=wrap;html=1;" parent="ddrB5zwnWM9dMD7mT3Nc-152" vertex="1">
          <mxGeometry width="30" height="30" as="geometry">
            <mxRectangle width="30" height="30" as="alternateBounds" />
          </mxGeometry>
        </mxCell>
        <mxCell id="ddrB5zwnWM9dMD7mT3Nc-154" value="ReviewID: INTEGER" style="shape=partialRectangle;connectable=0;fillColor=none;top=0;left=0;bottom=0;right=0;align=left;spacingLeft=6;fontStyle=5;overflow=hidden;whiteSpace=wrap;html=1;" parent="ddrB5zwnWM9dMD7mT3Nc-152" vertex="1">
          <mxGeometry x="30" width="180" height="30" as="geometry">
            <mxRectangle width="180" height="30" as="alternateBounds" />
          </mxGeometry>
        </mxCell>
        <mxCell id="ddrB5zwnWM9dMD7mT3Nc-155" value="" style="shape=tableRow;horizontal=0;startSize=0;swimlaneHead=0;swimlaneBody=0;fillColor=none;collapsible=0;dropTarget=0;points=[[0,0.5],[1,0.5]];portConstraint=eastwest;top=0;left=0;right=0;bottom=0;" parent="ddrB5zwnWM9dMD7mT3Nc-151" vertex="1">
          <mxGeometry y="60" width="210" height="30" as="geometry" />
        </mxCell>
        <mxCell id="ddrB5zwnWM9dMD7mT3Nc-156" value="" style="shape=partialRectangle;connectable=0;fillColor=none;top=0;left=0;bottom=0;right=0;editable=1;overflow=hidden;whiteSpace=wrap;html=1;" parent="ddrB5zwnWM9dMD7mT3Nc-155" vertex="1">
          <mxGeometry width="30" height="30" as="geometry">
            <mxRectangle width="30" height="30" as="alternateBounds" />
          </mxGeometry>
        </mxCell>
        <mxCell id="ddrB5zwnWM9dMD7mT3Nc-157" value="Comment: TEXT: NOT NULL" style="shape=partialRectangle;connectable=0;fillColor=none;top=0;left=0;bottom=0;right=0;align=left;spacingLeft=6;overflow=hidden;whiteSpace=wrap;html=1;" parent="ddrB5zwnWM9dMD7mT3Nc-155" vertex="1">
          <mxGeometry x="30" width="180" height="30" as="geometry">
            <mxRectangle width="180" height="30" as="alternateBounds" />
          </mxGeometry>
        </mxCell>
        <mxCell id="ddrB5zwnWM9dMD7mT3Nc-158" value="" style="shape=tableRow;horizontal=0;startSize=0;swimlaneHead=0;swimlaneBody=0;fillColor=none;collapsible=0;dropTarget=0;points=[[0,0.5],[1,0.5]];portConstraint=eastwest;top=0;left=0;right=0;bottom=0;" parent="ddrB5zwnWM9dMD7mT3Nc-151" vertex="1">
          <mxGeometry y="90" width="210" height="30" as="geometry" />
        </mxCell>
        <mxCell id="ddrB5zwnWM9dMD7mT3Nc-159" value="" style="shape=partialRectangle;connectable=0;fillColor=none;top=0;left=0;bottom=0;right=0;editable=1;overflow=hidden;whiteSpace=wrap;html=1;" parent="ddrB5zwnWM9dMD7mT3Nc-158" vertex="1">
          <mxGeometry width="30" height="30" as="geometry">
            <mxRectangle width="30" height="30" as="alternateBounds" />
          </mxGeometry>
        </mxCell>
        <mxCell id="ddrB5zwnWM9dMD7mT3Nc-160" value="Rating: REAL: NOT NULL" style="shape=partialRectangle;connectable=0;fillColor=none;top=0;left=0;bottom=0;right=0;align=left;spacingLeft=6;overflow=hidden;whiteSpace=wrap;html=1;" parent="ddrB5zwnWM9dMD7mT3Nc-158" vertex="1">
          <mxGeometry x="30" width="180" height="30" as="geometry">
            <mxRectangle width="180" height="30" as="alternateBounds" />
          </mxGeometry>
        </mxCell>
        <mxCell id="ddrB5zwnWM9dMD7mT3Nc-161" value="" style="shape=tableRow;horizontal=0;startSize=0;swimlaneHead=0;swimlaneBody=0;fillColor=none;collapsible=0;dropTarget=0;points=[[0,0.5],[1,0.5]];portConstraint=eastwest;top=0;left=0;right=0;bottom=0;" parent="ddrB5zwnWM9dMD7mT3Nc-151" vertex="1">
          <mxGeometry y="120" width="210" height="30" as="geometry" />
        </mxCell>
        <mxCell id="ddrB5zwnWM9dMD7mT3Nc-162" value="FK1" style="shape=partialRectangle;connectable=0;fillColor=none;top=0;left=0;bottom=0;right=0;editable=1;overflow=hidden;whiteSpace=wrap;html=1;" parent="ddrB5zwnWM9dMD7mT3Nc-161" vertex="1">
          <mxGeometry width="30" height="30" as="geometry">
            <mxRectangle width="30" height="30" as="alternateBounds" />
          </mxGeometry>
        </mxCell>
        <mxCell id="ddrB5zwnWM9dMD7mT3Nc-163" value="UserID: INTEGER: NOT NULL" style="shape=partialRectangle;connectable=0;fillColor=none;top=0;left=0;bottom=0;right=0;align=left;spacingLeft=6;overflow=hidden;whiteSpace=wrap;html=1;" parent="ddrB5zwnWM9dMD7mT3Nc-161" vertex="1">
          <mxGeometry x="30" width="180" height="30" as="geometry">
            <mxRectangle width="180" height="30" as="alternateBounds" />
          </mxGeometry>
        </mxCell>
        <mxCell id="ddrB5zwnWM9dMD7mT3Nc-179" value="ActorReview" style="shape=table;startSize=30;container=1;collapsible=1;childLayout=tableLayout;fixedRows=1;rowLines=0;fontStyle=1;align=center;resizeLast=1;html=1;whiteSpace=wrap;fillColor=#dae8fc;strokeColor=#6c8ebf;" parent="1" vertex="1">
          <mxGeometry x="778" y="1280" width="215" height="90" as="geometry" />
        </mxCell>
        <mxCell id="ddrB5zwnWM9dMD7mT3Nc-180" value="" style="shape=tableRow;horizontal=0;startSize=0;swimlaneHead=0;swimlaneBody=0;fillColor=none;collapsible=0;dropTarget=0;points=[[0,0.5],[1,0.5]];portConstraint=eastwest;top=0;left=0;right=0;bottom=0;html=1;" parent="ddrB5zwnWM9dMD7mT3Nc-179" vertex="1">
          <mxGeometry y="30" width="215" height="30" as="geometry" />
        </mxCell>
        <mxCell id="ddrB5zwnWM9dMD7mT3Nc-181" value="PK,FK1" style="shape=partialRectangle;connectable=0;fillColor=none;top=0;left=0;bottom=0;right=0;fontStyle=1;overflow=hidden;html=1;whiteSpace=wrap;" parent="ddrB5zwnWM9dMD7mT3Nc-180" vertex="1">
          <mxGeometry width="60" height="30" as="geometry">
            <mxRectangle width="60" height="30" as="alternateBounds" />
          </mxGeometry>
        </mxCell>
        <mxCell id="ddrB5zwnWM9dMD7mT3Nc-182" value="ActorID: INTEGER" style="shape=partialRectangle;connectable=0;fillColor=none;top=0;left=0;bottom=0;right=0;align=left;spacingLeft=6;fontStyle=5;overflow=hidden;html=1;whiteSpace=wrap;" parent="ddrB5zwnWM9dMD7mT3Nc-180" vertex="1">
          <mxGeometry x="60" width="155" height="30" as="geometry">
            <mxRectangle width="155" height="30" as="alternateBounds" />
          </mxGeometry>
        </mxCell>
        <mxCell id="ddrB5zwnWM9dMD7mT3Nc-183" value="" style="shape=tableRow;horizontal=0;startSize=0;swimlaneHead=0;swimlaneBody=0;fillColor=none;collapsible=0;dropTarget=0;points=[[0,0.5],[1,0.5]];portConstraint=eastwest;top=0;left=0;right=0;bottom=1;html=1;" parent="ddrB5zwnWM9dMD7mT3Nc-179" vertex="1">
          <mxGeometry y="60" width="215" height="30" as="geometry" />
        </mxCell>
        <mxCell id="ddrB5zwnWM9dMD7mT3Nc-184" value="PK,FK2" style="shape=partialRectangle;connectable=0;fillColor=none;top=0;left=0;bottom=0;right=0;fontStyle=1;overflow=hidden;html=1;whiteSpace=wrap;" parent="ddrB5zwnWM9dMD7mT3Nc-183" vertex="1">
          <mxGeometry width="60" height="30" as="geometry">
            <mxRectangle width="60" height="30" as="alternateBounds" />
          </mxGeometry>
        </mxCell>
        <mxCell id="ddrB5zwnWM9dMD7mT3Nc-185" value="ReviewID: INTEGER" style="shape=partialRectangle;connectable=0;fillColor=none;top=0;left=0;bottom=0;right=0;align=left;spacingLeft=6;fontStyle=5;overflow=hidden;html=1;whiteSpace=wrap;" parent="ddrB5zwnWM9dMD7mT3Nc-183" vertex="1">
          <mxGeometry x="60" width="155" height="30" as="geometry">
            <mxRectangle width="155" height="30" as="alternateBounds" />
          </mxGeometry>
        </mxCell>
        <mxCell id="ddrB5zwnWM9dMD7mT3Nc-192" value="DirectorReview" style="shape=table;startSize=30;container=1;collapsible=1;childLayout=tableLayout;fixedRows=1;rowLines=0;fontStyle=1;align=center;resizeLast=1;html=1;whiteSpace=wrap;fillColor=#dae8fc;strokeColor=#6c8ebf;" parent="1" vertex="1">
          <mxGeometry x="1603" y="1290" width="215" height="90" as="geometry" />
        </mxCell>
        <mxCell id="ddrB5zwnWM9dMD7mT3Nc-193" value="" style="shape=tableRow;horizontal=0;startSize=0;swimlaneHead=0;swimlaneBody=0;fillColor=none;collapsible=0;dropTarget=0;points=[[0,0.5],[1,0.5]];portConstraint=eastwest;top=0;left=0;right=0;bottom=0;html=1;" parent="ddrB5zwnWM9dMD7mT3Nc-192" vertex="1">
          <mxGeometry y="30" width="215" height="30" as="geometry" />
        </mxCell>
        <mxCell id="ddrB5zwnWM9dMD7mT3Nc-194" value="PK,FK1" style="shape=partialRectangle;connectable=0;fillColor=none;top=0;left=0;bottom=0;right=0;fontStyle=1;overflow=hidden;html=1;whiteSpace=wrap;" parent="ddrB5zwnWM9dMD7mT3Nc-193" vertex="1">
          <mxGeometry width="60" height="30" as="geometry">
            <mxRectangle width="60" height="30" as="alternateBounds" />
          </mxGeometry>
        </mxCell>
        <mxCell id="ddrB5zwnWM9dMD7mT3Nc-195" value="DirectorID: INTEGER" style="shape=partialRectangle;connectable=0;fillColor=none;top=0;left=0;bottom=0;right=0;align=left;spacingLeft=6;fontStyle=5;overflow=hidden;html=1;whiteSpace=wrap;" parent="ddrB5zwnWM9dMD7mT3Nc-193" vertex="1">
          <mxGeometry x="60" width="155" height="30" as="geometry">
            <mxRectangle width="155" height="30" as="alternateBounds" />
          </mxGeometry>
        </mxCell>
        <mxCell id="ddrB5zwnWM9dMD7mT3Nc-196" value="" style="shape=tableRow;horizontal=0;startSize=0;swimlaneHead=0;swimlaneBody=0;fillColor=none;collapsible=0;dropTarget=0;points=[[0,0.5],[1,0.5]];portConstraint=eastwest;top=0;left=0;right=0;bottom=1;html=1;" parent="ddrB5zwnWM9dMD7mT3Nc-192" vertex="1">
          <mxGeometry y="60" width="215" height="30" as="geometry" />
        </mxCell>
        <mxCell id="ddrB5zwnWM9dMD7mT3Nc-197" value="PK,FK2" style="shape=partialRectangle;connectable=0;fillColor=none;top=0;left=0;bottom=0;right=0;fontStyle=1;overflow=hidden;html=1;whiteSpace=wrap;" parent="ddrB5zwnWM9dMD7mT3Nc-196" vertex="1">
          <mxGeometry width="60" height="30" as="geometry">
            <mxRectangle width="60" height="30" as="alternateBounds" />
          </mxGeometry>
        </mxCell>
        <mxCell id="ddrB5zwnWM9dMD7mT3Nc-198" value="ReviewID: INTEGER" style="shape=partialRectangle;connectable=0;fillColor=none;top=0;left=0;bottom=0;right=0;align=left;spacingLeft=6;fontStyle=5;overflow=hidden;html=1;whiteSpace=wrap;" parent="ddrB5zwnWM9dMD7mT3Nc-196" vertex="1">
          <mxGeometry x="60" width="155" height="30" as="geometry">
            <mxRectangle width="155" height="30" as="alternateBounds" />
          </mxGeometry>
        </mxCell>
        <mxCell id="ddrB5zwnWM9dMD7mT3Nc-199" value="" style="edgeStyle=orthogonalEdgeStyle;fontSize=12;html=1;endArrow=ERzeroToMany;startArrow=ERmandOne;rounded=0;strokeWidth=2;endSize=15;startSize=15;" parent="1" source="ddrB5zwnWM9dMD7mT3Nc-151" target="ddrB5zwnWM9dMD7mT3Nc-179" edge="1">
          <mxGeometry width="100" height="100" relative="1" as="geometry">
            <mxPoint x="893" y="1500" as="sourcePoint" />
            <mxPoint x="1065" y="1400" as="targetPoint" />
          </mxGeometry>
        </mxCell>
        <mxCell id="ddrB5zwnWM9dMD7mT3Nc-278" value="&lt;font style=&quot;font-size: 15px;&quot;&gt;Contains&lt;/font&gt;" style="edgeLabel;html=1;align=center;verticalAlign=middle;resizable=0;points=[];" parent="ddrB5zwnWM9dMD7mT3Nc-199" vertex="1" connectable="0">
          <mxGeometry x="-0.0581" y="1" relative="1" as="geometry">
            <mxPoint as="offset" />
          </mxGeometry>
        </mxCell>
        <mxCell id="ddrB5zwnWM9dMD7mT3Nc-200" value="" style="edgeStyle=orthogonalEdgeStyle;fontSize=12;html=1;endArrow=ERzeroToMany;startArrow=ERmandOne;rounded=0;strokeWidth=2;endSize=15;startSize=15;" parent="1" source="ddrB5zwnWM9dMD7mT3Nc-151" target="ddrB5zwnWM9dMD7mT3Nc-192" edge="1">
          <mxGeometry width="100" height="100" relative="1" as="geometry">
            <mxPoint x="1583" y="1470" as="sourcePoint" />
            <mxPoint x="1755" y="1370" as="targetPoint" />
          </mxGeometry>
        </mxCell>
        <mxCell id="ddrB5zwnWM9dMD7mT3Nc-279" value="&lt;font style=&quot;font-size: 15px;&quot;&gt;Contains&lt;/font&gt;" style="edgeLabel;html=1;align=center;verticalAlign=middle;resizable=0;points=[];" parent="ddrB5zwnWM9dMD7mT3Nc-200" vertex="1" connectable="0">
          <mxGeometry x="-0.2274" y="-3" relative="1" as="geometry">
            <mxPoint as="offset" />
          </mxGeometry>
        </mxCell>
        <mxCell id="ddrB5zwnWM9dMD7mT3Nc-201" value="" style="edgeStyle=orthogonalEdgeStyle;fontSize=12;html=1;endArrow=ERzeroToMany;startArrow=ERmandOne;rounded=0;strokeWidth=2;endSize=15;startSize=15;" parent="1" source="ddrB5zwnWM9dMD7mT3Nc-5" target="ddrB5zwnWM9dMD7mT3Nc-192" edge="1">
          <mxGeometry width="100" height="100" relative="1" as="geometry">
            <mxPoint x="1422" y="1157.5" as="sourcePoint" />
            <mxPoint x="1594" y="1057.5" as="targetPoint" />
            <Array as="points">
              <mxPoint x="1938" y="1320" />
            </Array>
          </mxGeometry>
        </mxCell>
        <mxCell id="ddrB5zwnWM9dMD7mT3Nc-280" value="&lt;font style=&quot;font-size: 15px;&quot;&gt;Rated by&lt;br&gt;&lt;/font&gt;" style="edgeLabel;html=1;align=center;verticalAlign=middle;resizable=0;points=[];" parent="ddrB5zwnWM9dMD7mT3Nc-201" vertex="1" connectable="0">
          <mxGeometry x="-0.2897" y="3" relative="1" as="geometry">
            <mxPoint x="-3" as="offset" />
          </mxGeometry>
        </mxCell>
        <mxCell id="ddrB5zwnWM9dMD7mT3Nc-202" value="" style="edgeStyle=orthogonalEdgeStyle;fontSize=12;html=1;endArrow=ERzeroToMany;startArrow=ERmandOne;rounded=0;strokeWidth=2;endSize=15;startSize=15;" parent="1" source="CMmYyxB9AxRojB-h8BCf-171" target="ddrB5zwnWM9dMD7mT3Nc-179" edge="1">
          <mxGeometry width="100" height="100" relative="1" as="geometry">
            <mxPoint x="1063" y="1190" as="sourcePoint" />
            <mxPoint x="1235" y="1090" as="targetPoint" />
            <Array as="points">
              <mxPoint x="656" y="1325" />
            </Array>
          </mxGeometry>
        </mxCell>
        <mxCell id="ddrB5zwnWM9dMD7mT3Nc-277" value="&lt;font style=&quot;font-size: 15px;&quot;&gt;Rated by&lt;br&gt;&lt;/font&gt;" style="edgeLabel;html=1;align=center;verticalAlign=middle;resizable=0;points=[];" parent="ddrB5zwnWM9dMD7mT3Nc-202" vertex="1" connectable="0">
          <mxGeometry x="-0.3737" y="-4" relative="1" as="geometry">
            <mxPoint as="offset" />
          </mxGeometry>
        </mxCell>
        <mxCell id="ddrB5zwnWM9dMD7mT3Nc-205" value="" style="edgeStyle=orthogonalEdgeStyle;fontSize=12;html=1;endArrow=ERzeroToMany;startArrow=ERmandOne;rounded=0;strokeWidth=2;endSize=15;startSize=15;" parent="1" source="CMmYyxB9AxRojB-h8BCf-155" target="ddrB5zwnWM9dMD7mT3Nc-116" edge="1">
          <mxGeometry width="100" height="100" relative="1" as="geometry">
            <mxPoint x="1090" y="887.0588235294117" as="sourcePoint" />
            <mxPoint x="1326.5" y="690" as="targetPoint" />
            <Array as="points">
              <mxPoint x="1720" y="770" />
              <mxPoint x="886" y="770" />
            </Array>
          </mxGeometry>
        </mxCell>
        <mxCell id="ddrB5zwnWM9dMD7mT3Nc-270" value="&lt;font style=&quot;font-size: 15px;&quot;&gt;Features&lt;/font&gt;" style="edgeLabel;html=1;align=center;verticalAlign=middle;resizable=0;points=[];" parent="ddrB5zwnWM9dMD7mT3Nc-205" vertex="1" connectable="0">
          <mxGeometry x="0.498" relative="1" as="geometry">
            <mxPoint x="1" as="offset" />
          </mxGeometry>
        </mxCell>
        <mxCell id="ddrB5zwnWM9dMD7mT3Nc-206" value="" style="edgeStyle=orthogonalEdgeStyle;fontSize=12;html=1;endArrow=ERzeroToMany;startArrow=ERmandOne;rounded=0;strokeWidth=2;endSize=15;startSize=15;" parent="1" source="CMmYyxB9AxRojB-h8BCf-142" target="ddrB5zwnWM9dMD7mT3Nc-96" edge="1">
          <mxGeometry width="100" height="100" relative="1" as="geometry">
            <mxPoint x="593" y="750" as="sourcePoint" />
            <mxPoint x="765" y="650" as="targetPoint" />
            <Array as="points">
              <mxPoint x="1250" y="740" />
              <mxPoint x="656" y="740" />
            </Array>
          </mxGeometry>
        </mxCell>
        <mxCell id="ddrB5zwnWM9dMD7mT3Nc-269" value="&lt;font style=&quot;font-size: 15px;&quot;&gt;Features&lt;/font&gt;" style="edgeLabel;html=1;align=center;verticalAlign=middle;resizable=0;points=[];" parent="ddrB5zwnWM9dMD7mT3Nc-206" vertex="1" connectable="0">
          <mxGeometry x="0.4513" y="3" relative="1" as="geometry">
            <mxPoint as="offset" />
          </mxGeometry>
        </mxCell>
        <mxCell id="ddrB5zwnWM9dMD7mT3Nc-207" value="" style="edgeStyle=orthogonalEdgeStyle;fontSize=12;html=1;endArrow=ERzeroToMany;startArrow=ERmandOne;rounded=0;strokeWidth=2;endSize=15;startSize=15;" parent="1" source="2dNWp42R9KnTXTzvP6k_-37" target="ddrB5zwnWM9dMD7mT3Nc-109" edge="1">
          <mxGeometry width="100" height="100" relative="1" as="geometry">
            <mxPoint x="590" y="680" as="sourcePoint" />
            <mxPoint x="762" y="580" as="targetPoint" />
            <Array as="points">
              <mxPoint x="880" y="710" />
              <mxPoint x="425" y="710" />
            </Array>
          </mxGeometry>
        </mxCell>
        <mxCell id="ddrB5zwnWM9dMD7mT3Nc-268" value="&lt;font style=&quot;font-size: 15px;&quot;&gt;Features&lt;/font&gt;" style="edgeLabel;html=1;align=center;verticalAlign=middle;resizable=0;points=[];" parent="ddrB5zwnWM9dMD7mT3Nc-207" vertex="1" connectable="0">
          <mxGeometry x="0.0037" relative="1" as="geometry">
            <mxPoint as="offset" />
          </mxGeometry>
        </mxCell>
        <mxCell id="ddrB5zwnWM9dMD7mT3Nc-208" value="" style="edgeStyle=orthogonalEdgeStyle;fontSize=12;html=1;endArrow=ERzeroToMany;startArrow=ERmandOne;rounded=0;strokeWidth=2;endSize=15;startSize=15;entryX=0.5;entryY=0;entryDx=0;entryDy=0;" parent="1" source="CMmYyxB9AxRojB-h8BCf-155" target="ddrB5zwnWM9dMD7mT3Nc-131" edge="1">
          <mxGeometry width="100" height="100" relative="1" as="geometry">
            <mxPoint x="1910" y="720" as="sourcePoint" />
            <mxPoint x="2082" y="620" as="targetPoint" />
            <Array as="points">
              <mxPoint x="1820" y="770" />
              <mxPoint x="2175" y="770" />
            </Array>
          </mxGeometry>
        </mxCell>
        <mxCell id="ddrB5zwnWM9dMD7mT3Nc-271" value="&lt;font style=&quot;font-size: 15px;&quot;&gt;Directed by&lt;br&gt;&lt;/font&gt;" style="edgeLabel;html=1;align=center;verticalAlign=middle;resizable=0;points=[];" parent="ddrB5zwnWM9dMD7mT3Nc-208" vertex="1" connectable="0">
          <mxGeometry x="0.1846" relative="1" as="geometry">
            <mxPoint x="17" as="offset" />
          </mxGeometry>
        </mxCell>
        <mxCell id="ddrB5zwnWM9dMD7mT3Nc-209" value="" style="edgeStyle=orthogonalEdgeStyle;fontSize=12;html=1;endArrow=ERzeroToMany;startArrow=ERmandOne;rounded=0;strokeWidth=2;endSize=15;startSize=15;" parent="1" source="CMmYyxB9AxRojB-h8BCf-142" target="ddrB5zwnWM9dMD7mT3Nc-124" edge="1">
          <mxGeometry width="100" height="100" relative="1" as="geometry">
            <mxPoint x="1530" y="720" as="sourcePoint" />
            <mxPoint x="1702" y="620" as="targetPoint" />
            <Array as="points">
              <mxPoint x="1390" y="740" />
              <mxPoint x="1938" y="740" />
            </Array>
          </mxGeometry>
        </mxCell>
        <mxCell id="ddrB5zwnWM9dMD7mT3Nc-272" value="&lt;font style=&quot;font-size: 15px;&quot;&gt;Directed by&lt;br&gt;&lt;/font&gt;" style="edgeLabel;html=1;align=center;verticalAlign=middle;resizable=0;points=[];" parent="ddrB5zwnWM9dMD7mT3Nc-209" vertex="1" connectable="0">
          <mxGeometry x="-0.251" y="3" relative="1" as="geometry">
            <mxPoint x="83" as="offset" />
          </mxGeometry>
        </mxCell>
        <mxCell id="ddrB5zwnWM9dMD7mT3Nc-210" value="" style="edgeStyle=orthogonalEdgeStyle;fontSize=12;html=1;endArrow=ERzeroToMany;startArrow=ERmandOne;rounded=0;strokeWidth=2;endSize=15;startSize=15;" parent="1" source="2dNWp42R9KnTXTzvP6k_-37" target="ddrB5zwnWM9dMD7mT3Nc-138" edge="1">
          <mxGeometry width="100" height="100" relative="1" as="geometry">
            <mxPoint x="1280" y="850" as="sourcePoint" />
            <mxPoint x="1452" y="750" as="targetPoint" />
            <Array as="points">
              <mxPoint x="1010" y="710" />
              <mxPoint x="1705" y="710" />
            </Array>
          </mxGeometry>
        </mxCell>
        <mxCell id="ddrB5zwnWM9dMD7mT3Nc-273" value="&lt;font style=&quot;font-size: 15px;&quot;&gt;Directed by&lt;br&gt;&lt;/font&gt;" style="edgeLabel;html=1;align=center;verticalAlign=middle;resizable=0;points=[];" parent="ddrB5zwnWM9dMD7mT3Nc-210" vertex="1" connectable="0">
          <mxGeometry x="0.1314" y="-1" relative="1" as="geometry">
            <mxPoint x="-7" y="-1" as="offset" />
          </mxGeometry>
        </mxCell>
        <mxCell id="ddrB5zwnWM9dMD7mT3Nc-211" value="MovieReview" style="shape=table;startSize=30;container=1;collapsible=1;childLayout=tableLayout;fixedRows=1;rowLines=0;fontStyle=1;align=center;resizeLast=1;html=1;whiteSpace=wrap;fillColor=#dae8fc;strokeColor=#6c8ebf;" parent="1" vertex="1">
          <mxGeometry x="1003" y="1080" width="180" height="90" as="geometry" />
        </mxCell>
        <mxCell id="ddrB5zwnWM9dMD7mT3Nc-212" value="" style="shape=tableRow;horizontal=0;startSize=0;swimlaneHead=0;swimlaneBody=0;fillColor=none;collapsible=0;dropTarget=0;points=[[0,0.5],[1,0.5]];portConstraint=eastwest;top=0;left=0;right=0;bottom=0;html=1;" parent="ddrB5zwnWM9dMD7mT3Nc-211" vertex="1">
          <mxGeometry y="30" width="180" height="30" as="geometry" />
        </mxCell>
        <mxCell id="ddrB5zwnWM9dMD7mT3Nc-213" value="PK,FK1" style="shape=partialRectangle;connectable=0;fillColor=none;top=0;left=0;bottom=0;right=0;fontStyle=1;overflow=hidden;html=1;whiteSpace=wrap;" parent="ddrB5zwnWM9dMD7mT3Nc-212" vertex="1">
          <mxGeometry width="60" height="30" as="geometry">
            <mxRectangle width="60" height="30" as="alternateBounds" />
          </mxGeometry>
        </mxCell>
        <mxCell id="ddrB5zwnWM9dMD7mT3Nc-214" value="MovieID" style="shape=partialRectangle;connectable=0;fillColor=none;top=0;left=0;bottom=0;right=0;align=left;spacingLeft=6;fontStyle=5;overflow=hidden;html=1;whiteSpace=wrap;" parent="ddrB5zwnWM9dMD7mT3Nc-212" vertex="1">
          <mxGeometry x="60" width="120" height="30" as="geometry">
            <mxRectangle width="120" height="30" as="alternateBounds" />
          </mxGeometry>
        </mxCell>
        <mxCell id="ddrB5zwnWM9dMD7mT3Nc-215" value="" style="shape=tableRow;horizontal=0;startSize=0;swimlaneHead=0;swimlaneBody=0;fillColor=none;collapsible=0;dropTarget=0;points=[[0,0.5],[1,0.5]];portConstraint=eastwest;top=0;left=0;right=0;bottom=1;html=1;" parent="ddrB5zwnWM9dMD7mT3Nc-211" vertex="1">
          <mxGeometry y="60" width="180" height="30" as="geometry" />
        </mxCell>
        <mxCell id="ddrB5zwnWM9dMD7mT3Nc-216" value="PK,FK2" style="shape=partialRectangle;connectable=0;fillColor=none;top=0;left=0;bottom=0;right=0;fontStyle=1;overflow=hidden;html=1;whiteSpace=wrap;" parent="ddrB5zwnWM9dMD7mT3Nc-215" vertex="1">
          <mxGeometry width="60" height="30" as="geometry">
            <mxRectangle width="60" height="30" as="alternateBounds" />
          </mxGeometry>
        </mxCell>
        <mxCell id="ddrB5zwnWM9dMD7mT3Nc-217" value="ReviewID" style="shape=partialRectangle;connectable=0;fillColor=none;top=0;left=0;bottom=0;right=0;align=left;spacingLeft=6;fontStyle=5;overflow=hidden;html=1;whiteSpace=wrap;" parent="ddrB5zwnWM9dMD7mT3Nc-215" vertex="1">
          <mxGeometry x="60" width="120" height="30" as="geometry">
            <mxRectangle width="120" height="30" as="alternateBounds" />
          </mxGeometry>
        </mxCell>
        <mxCell id="ddrB5zwnWM9dMD7mT3Nc-224" value="TVShowReview" style="shape=table;startSize=30;container=1;collapsible=1;childLayout=tableLayout;fixedRows=1;rowLines=0;fontStyle=1;align=center;resizeLast=1;html=1;whiteSpace=wrap;fillColor=#dae8fc;strokeColor=#6c8ebf;" parent="1" vertex="1">
          <mxGeometry x="1238" y="1080" width="180" height="90" as="geometry" />
        </mxCell>
        <mxCell id="ddrB5zwnWM9dMD7mT3Nc-225" value="" style="shape=tableRow;horizontal=0;startSize=0;swimlaneHead=0;swimlaneBody=0;fillColor=none;collapsible=0;dropTarget=0;points=[[0,0.5],[1,0.5]];portConstraint=eastwest;top=0;left=0;right=0;bottom=0;html=1;" parent="ddrB5zwnWM9dMD7mT3Nc-224" vertex="1">
          <mxGeometry y="30" width="180" height="30" as="geometry" />
        </mxCell>
        <mxCell id="ddrB5zwnWM9dMD7mT3Nc-226" value="PK,FK1" style="shape=partialRectangle;connectable=0;fillColor=none;top=0;left=0;bottom=0;right=0;fontStyle=1;overflow=hidden;html=1;whiteSpace=wrap;" parent="ddrB5zwnWM9dMD7mT3Nc-225" vertex="1">
          <mxGeometry width="60" height="30" as="geometry">
            <mxRectangle width="60" height="30" as="alternateBounds" />
          </mxGeometry>
        </mxCell>
        <mxCell id="ddrB5zwnWM9dMD7mT3Nc-227" value="TVShowID" style="shape=partialRectangle;connectable=0;fillColor=none;top=0;left=0;bottom=0;right=0;align=left;spacingLeft=6;fontStyle=5;overflow=hidden;html=1;whiteSpace=wrap;" parent="ddrB5zwnWM9dMD7mT3Nc-225" vertex="1">
          <mxGeometry x="60" width="120" height="30" as="geometry">
            <mxRectangle width="120" height="30" as="alternateBounds" />
          </mxGeometry>
        </mxCell>
        <mxCell id="ddrB5zwnWM9dMD7mT3Nc-228" value="" style="shape=tableRow;horizontal=0;startSize=0;swimlaneHead=0;swimlaneBody=0;fillColor=none;collapsible=0;dropTarget=0;points=[[0,0.5],[1,0.5]];portConstraint=eastwest;top=0;left=0;right=0;bottom=1;html=1;" parent="ddrB5zwnWM9dMD7mT3Nc-224" vertex="1">
          <mxGeometry y="60" width="180" height="30" as="geometry" />
        </mxCell>
        <mxCell id="ddrB5zwnWM9dMD7mT3Nc-229" value="PK,FK2" style="shape=partialRectangle;connectable=0;fillColor=none;top=0;left=0;bottom=0;right=0;fontStyle=1;overflow=hidden;html=1;whiteSpace=wrap;" parent="ddrB5zwnWM9dMD7mT3Nc-228" vertex="1">
          <mxGeometry width="60" height="30" as="geometry">
            <mxRectangle width="60" height="30" as="alternateBounds" />
          </mxGeometry>
        </mxCell>
        <mxCell id="ddrB5zwnWM9dMD7mT3Nc-230" value="ReviewID" style="shape=partialRectangle;connectable=0;fillColor=none;top=0;left=0;bottom=0;right=0;align=left;spacingLeft=6;fontStyle=5;overflow=hidden;html=1;whiteSpace=wrap;" parent="ddrB5zwnWM9dMD7mT3Nc-228" vertex="1">
          <mxGeometry x="60" width="120" height="30" as="geometry">
            <mxRectangle width="120" height="30" as="alternateBounds" />
          </mxGeometry>
        </mxCell>
        <mxCell id="ddrB5zwnWM9dMD7mT3Nc-231" value="EpisodeReview" style="shape=table;startSize=30;container=1;collapsible=1;childLayout=tableLayout;fixedRows=1;rowLines=0;fontStyle=1;align=center;resizeLast=1;html=1;whiteSpace=wrap;fillColor=#dae8fc;strokeColor=#6c8ebf;" parent="1" vertex="1">
          <mxGeometry x="1463" y="1080" width="180" height="90" as="geometry" />
        </mxCell>
        <mxCell id="ddrB5zwnWM9dMD7mT3Nc-232" value="" style="shape=tableRow;horizontal=0;startSize=0;swimlaneHead=0;swimlaneBody=0;fillColor=none;collapsible=0;dropTarget=0;points=[[0,0.5],[1,0.5]];portConstraint=eastwest;top=0;left=0;right=0;bottom=0;html=1;" parent="ddrB5zwnWM9dMD7mT3Nc-231" vertex="1">
          <mxGeometry y="30" width="180" height="30" as="geometry" />
        </mxCell>
        <mxCell id="ddrB5zwnWM9dMD7mT3Nc-233" value="PK,FK1" style="shape=partialRectangle;connectable=0;fillColor=none;top=0;left=0;bottom=0;right=0;fontStyle=1;overflow=hidden;html=1;whiteSpace=wrap;" parent="ddrB5zwnWM9dMD7mT3Nc-232" vertex="1">
          <mxGeometry width="60" height="30" as="geometry">
            <mxRectangle width="60" height="30" as="alternateBounds" />
          </mxGeometry>
        </mxCell>
        <mxCell id="ddrB5zwnWM9dMD7mT3Nc-234" value="EpisodeID" style="shape=partialRectangle;connectable=0;fillColor=none;top=0;left=0;bottom=0;right=0;align=left;spacingLeft=6;fontStyle=5;overflow=hidden;html=1;whiteSpace=wrap;" parent="ddrB5zwnWM9dMD7mT3Nc-232" vertex="1">
          <mxGeometry x="60" width="120" height="30" as="geometry">
            <mxRectangle width="120" height="30" as="alternateBounds" />
          </mxGeometry>
        </mxCell>
        <mxCell id="ddrB5zwnWM9dMD7mT3Nc-235" value="" style="shape=tableRow;horizontal=0;startSize=0;swimlaneHead=0;swimlaneBody=0;fillColor=none;collapsible=0;dropTarget=0;points=[[0,0.5],[1,0.5]];portConstraint=eastwest;top=0;left=0;right=0;bottom=1;html=1;" parent="ddrB5zwnWM9dMD7mT3Nc-231" vertex="1">
          <mxGeometry y="60" width="180" height="30" as="geometry" />
        </mxCell>
        <mxCell id="ddrB5zwnWM9dMD7mT3Nc-236" value="PK,FK2" style="shape=partialRectangle;connectable=0;fillColor=none;top=0;left=0;bottom=0;right=0;fontStyle=1;overflow=hidden;html=1;whiteSpace=wrap;" parent="ddrB5zwnWM9dMD7mT3Nc-235" vertex="1">
          <mxGeometry width="60" height="30" as="geometry">
            <mxRectangle width="60" height="30" as="alternateBounds" />
          </mxGeometry>
        </mxCell>
        <mxCell id="ddrB5zwnWM9dMD7mT3Nc-237" value="ReviewID" style="shape=partialRectangle;connectable=0;fillColor=none;top=0;left=0;bottom=0;right=0;align=left;spacingLeft=6;fontStyle=5;overflow=hidden;html=1;whiteSpace=wrap;" parent="ddrB5zwnWM9dMD7mT3Nc-235" vertex="1">
          <mxGeometry x="60" width="120" height="30" as="geometry">
            <mxRectangle width="120" height="30" as="alternateBounds" />
          </mxGeometry>
        </mxCell>
        <mxCell id="ddrB5zwnWM9dMD7mT3Nc-245" value="" style="edgeStyle=orthogonalEdgeStyle;fontSize=12;html=1;endArrow=ERzeroToMany;startArrow=ERmandOne;rounded=0;strokeWidth=2;endSize=15;startSize=15;exitX=0.25;exitY=0;exitDx=0;exitDy=0;" parent="1" source="ddrB5zwnWM9dMD7mT3Nc-151" target="ddrB5zwnWM9dMD7mT3Nc-211" edge="1">
          <mxGeometry width="100" height="100" relative="1" as="geometry">
            <mxPoint x="1170" y="1250" as="sourcePoint" />
            <mxPoint x="833" y="1080" as="targetPoint" />
          </mxGeometry>
        </mxCell>
        <mxCell id="ddrB5zwnWM9dMD7mT3Nc-287" value="&lt;font style=&quot;font-size: 15px;&quot;&gt;Contains&lt;/font&gt;" style="edgeLabel;html=1;align=center;verticalAlign=middle;resizable=0;points=[];" parent="ddrB5zwnWM9dMD7mT3Nc-245" vertex="1" connectable="0">
          <mxGeometry x="0.0646" relative="1" as="geometry">
            <mxPoint as="offset" />
          </mxGeometry>
        </mxCell>
        <mxCell id="ddrB5zwnWM9dMD7mT3Nc-246" value="" style="edgeStyle=orthogonalEdgeStyle;fontSize=12;html=1;endArrow=ERzeroToMany;startArrow=ERmandOne;rounded=0;strokeWidth=2;endSize=15;startSize=15;exitX=0.5;exitY=0;exitDx=0;exitDy=0;" parent="1" source="ddrB5zwnWM9dMD7mT3Nc-151" target="ddrB5zwnWM9dMD7mT3Nc-224" edge="1">
          <mxGeometry width="100" height="100" relative="1" as="geometry">
            <mxPoint x="1410" y="1250" as="sourcePoint" />
            <mxPoint x="1073" y="1080" as="targetPoint" />
          </mxGeometry>
        </mxCell>
        <mxCell id="ddrB5zwnWM9dMD7mT3Nc-290" value="&lt;font style=&quot;font-size: 15px;&quot;&gt;Contains&lt;/font&gt;" style="edgeLabel;html=1;align=center;verticalAlign=middle;resizable=0;points=[];" parent="ddrB5zwnWM9dMD7mT3Nc-246" vertex="1" connectable="0">
          <mxGeometry x="0.0589" y="-3" relative="1" as="geometry">
            <mxPoint x="-3" y="-23" as="offset" />
          </mxGeometry>
        </mxCell>
        <mxCell id="ddrB5zwnWM9dMD7mT3Nc-247" value="" style="edgeStyle=orthogonalEdgeStyle;fontSize=12;html=1;endArrow=ERzeroToMany;startArrow=ERmandOne;rounded=0;strokeWidth=2;endSize=15;startSize=15;exitX=0.75;exitY=0;exitDx=0;exitDy=0;" parent="1" source="ddrB5zwnWM9dMD7mT3Nc-151" target="ddrB5zwnWM9dMD7mT3Nc-231" edge="1">
          <mxGeometry width="100" height="100" relative="1" as="geometry">
            <mxPoint x="1470" y="1250" as="sourcePoint" />
            <mxPoint x="1133" y="1080" as="targetPoint" />
          </mxGeometry>
        </mxCell>
        <mxCell id="ddrB5zwnWM9dMD7mT3Nc-289" value="&lt;font style=&quot;font-size: 15px;&quot;&gt;Contains&lt;/font&gt;" style="edgeLabel;html=1;align=center;verticalAlign=middle;resizable=0;points=[];" parent="ddrB5zwnWM9dMD7mT3Nc-247" vertex="1" connectable="0">
          <mxGeometry x="-0.0526" y="-1" relative="1" as="geometry">
            <mxPoint y="-1" as="offset" />
          </mxGeometry>
        </mxCell>
        <mxCell id="ddrB5zwnWM9dMD7mT3Nc-248" value="" style="edgeStyle=orthogonalEdgeStyle;fontSize=12;html=1;endArrow=ERzeroToMany;startArrow=ERmandOne;rounded=0;strokeWidth=2;endSize=15;startSize=15;" parent="1" source="2dNWp42R9KnTXTzvP6k_-37" target="ddrB5zwnWM9dMD7mT3Nc-211" edge="1">
          <mxGeometry width="100" height="100" relative="1" as="geometry">
            <mxPoint x="1467" y="890" as="sourcePoint" />
            <mxPoint x="1130" y="720" as="targetPoint" />
            <Array as="points">
              <mxPoint x="948" y="800" />
              <mxPoint x="1093" y="800" />
            </Array>
          </mxGeometry>
        </mxCell>
        <mxCell id="ddrB5zwnWM9dMD7mT3Nc-267" value="&lt;font style=&quot;font-size: 15px;&quot;&gt;Rated by&lt;/font&gt;" style="edgeLabel;html=1;align=center;verticalAlign=middle;resizable=0;points=[];" parent="ddrB5zwnWM9dMD7mT3Nc-248" vertex="1" connectable="0">
          <mxGeometry x="0.2404" relative="1" as="geometry">
            <mxPoint as="offset" />
          </mxGeometry>
        </mxCell>
        <mxCell id="ddrB5zwnWM9dMD7mT3Nc-249" value="" style="edgeStyle=orthogonalEdgeStyle;fontSize=12;html=1;endArrow=ERzeroToMany;startArrow=ERmandOne;rounded=0;strokeWidth=2;endSize=15;startSize=15;" parent="1" source="CMmYyxB9AxRojB-h8BCf-142" target="ddrB5zwnWM9dMD7mT3Nc-224" edge="1">
          <mxGeometry width="100" height="100" relative="1" as="geometry">
            <mxPoint x="1612" y="1010" as="sourcePoint" />
            <mxPoint x="1275" y="840" as="targetPoint" />
          </mxGeometry>
        </mxCell>
        <mxCell id="ddrB5zwnWM9dMD7mT3Nc-265" value="&lt;font style=&quot;font-size: 15px;&quot;&gt;Rated by&lt;/font&gt;" style="edgeLabel;html=1;align=center;verticalAlign=middle;resizable=0;points=[];" parent="ddrB5zwnWM9dMD7mT3Nc-249" vertex="1" connectable="0">
          <mxGeometry x="0.1566" y="3" relative="1" as="geometry">
            <mxPoint as="offset" />
          </mxGeometry>
        </mxCell>
        <mxCell id="ddrB5zwnWM9dMD7mT3Nc-250" value="" style="edgeStyle=orthogonalEdgeStyle;fontSize=12;html=1;endArrow=ERzeroToMany;startArrow=ERmandOne;rounded=0;strokeWidth=2;endSize=15;startSize=15;" parent="1" source="CMmYyxB9AxRojB-h8BCf-155" target="ddrB5zwnWM9dMD7mT3Nc-231" edge="1">
          <mxGeometry width="100" height="100" relative="1" as="geometry">
            <mxPoint x="1810" y="960" as="sourcePoint" />
            <mxPoint x="1473" y="790" as="targetPoint" />
            <Array as="points">
              <mxPoint x="1760" y="800" />
              <mxPoint x="1553" y="800" />
            </Array>
          </mxGeometry>
        </mxCell>
        <mxCell id="ddrB5zwnWM9dMD7mT3Nc-266" value="&lt;font style=&quot;font-size: 15px;&quot;&gt;Rated by&lt;/font&gt;" style="edgeLabel;html=1;align=center;verticalAlign=middle;resizable=0;points=[];" parent="ddrB5zwnWM9dMD7mT3Nc-250" vertex="1" connectable="0">
          <mxGeometry x="0.2933" y="-2" relative="1" as="geometry">
            <mxPoint as="offset" />
          </mxGeometry>
        </mxCell>
        <mxCell id="ddrB5zwnWM9dMD7mT3Nc-251" value="EpisodeGenre" style="shape=table;startSize=30;container=1;collapsible=1;childLayout=tableLayout;fixedRows=1;rowLines=0;fontStyle=1;align=center;resizeLast=1;html=1;whiteSpace=wrap;fillColor=#dae8fc;strokeColor=#6c8ebf;" parent="1" vertex="1">
          <mxGeometry x="1810" y="220" width="240" height="90" as="geometry" />
        </mxCell>
        <mxCell id="ddrB5zwnWM9dMD7mT3Nc-252" value="" style="shape=tableRow;horizontal=0;startSize=0;swimlaneHead=0;swimlaneBody=0;fillColor=none;collapsible=0;dropTarget=0;points=[[0,0.5],[1,0.5]];portConstraint=eastwest;top=0;left=0;right=0;bottom=0;html=1;" parent="ddrB5zwnWM9dMD7mT3Nc-251" vertex="1">
          <mxGeometry y="30" width="240" height="30" as="geometry" />
        </mxCell>
        <mxCell id="ddrB5zwnWM9dMD7mT3Nc-253" value="PK,FK1" style="shape=partialRectangle;connectable=0;fillColor=none;top=0;left=0;bottom=0;right=0;fontStyle=1;overflow=hidden;html=1;whiteSpace=wrap;" parent="ddrB5zwnWM9dMD7mT3Nc-252" vertex="1">
          <mxGeometry width="60" height="30" as="geometry">
            <mxRectangle width="60" height="30" as="alternateBounds" />
          </mxGeometry>
        </mxCell>
        <mxCell id="ddrB5zwnWM9dMD7mT3Nc-254" value="EpisodeID: INTEGER" style="shape=partialRectangle;connectable=0;fillColor=none;top=0;left=0;bottom=0;right=0;align=left;spacingLeft=6;fontStyle=5;overflow=hidden;html=1;whiteSpace=wrap;" parent="ddrB5zwnWM9dMD7mT3Nc-252" vertex="1">
          <mxGeometry x="60" width="180" height="30" as="geometry">
            <mxRectangle width="180" height="30" as="alternateBounds" />
          </mxGeometry>
        </mxCell>
        <mxCell id="ddrB5zwnWM9dMD7mT3Nc-255" value="" style="shape=tableRow;horizontal=0;startSize=0;swimlaneHead=0;swimlaneBody=0;fillColor=none;collapsible=0;dropTarget=0;points=[[0,0.5],[1,0.5]];portConstraint=eastwest;top=0;left=0;right=0;bottom=1;html=1;" parent="ddrB5zwnWM9dMD7mT3Nc-251" vertex="1">
          <mxGeometry y="60" width="240" height="30" as="geometry" />
        </mxCell>
        <mxCell id="ddrB5zwnWM9dMD7mT3Nc-256" value="PK,FK2" style="shape=partialRectangle;connectable=0;fillColor=none;top=0;left=0;bottom=0;right=0;fontStyle=1;overflow=hidden;html=1;whiteSpace=wrap;" parent="ddrB5zwnWM9dMD7mT3Nc-255" vertex="1">
          <mxGeometry width="60" height="30" as="geometry">
            <mxRectangle width="60" height="30" as="alternateBounds" />
          </mxGeometry>
        </mxCell>
        <mxCell id="ddrB5zwnWM9dMD7mT3Nc-257" value="GenreID: INTEGER" style="shape=partialRectangle;connectable=0;fillColor=none;top=0;left=0;bottom=0;right=0;align=left;spacingLeft=6;fontStyle=5;overflow=hidden;html=1;whiteSpace=wrap;" parent="ddrB5zwnWM9dMD7mT3Nc-255" vertex="1">
          <mxGeometry x="60" width="180" height="30" as="geometry">
            <mxRectangle width="180" height="30" as="alternateBounds" />
          </mxGeometry>
        </mxCell>
        <mxCell id="ddrB5zwnWM9dMD7mT3Nc-258" value="Contains" style="edgeStyle=orthogonalEdgeStyle;fontSize=12;html=1;endArrow=ERzeroToMany;startArrow=ERmandOne;rounded=0;endSize=15;startSize=15;strokeWidth=2;startFill=0;endFill=0;" parent="1" source="2dNWp42R9KnTXTzvP6k_-53" target="2dNWp42R9KnTXTzvP6k_-118" edge="1">
          <mxGeometry width="100" height="100" relative="1" as="geometry">
            <mxPoint x="2000" y="110" as="sourcePoint" />
            <mxPoint x="1743" y="230" as="targetPoint" />
            <Array as="points" />
            <mxPoint as="offset" />
          </mxGeometry>
        </mxCell>
        <mxCell id="ddrB5zwnWM9dMD7mT3Nc-259" value="Contains" style="edgeStyle=orthogonalEdgeStyle;fontSize=12;html=1;endArrow=ERzeroToMany;startArrow=ERmandOne;rounded=0;endSize=15;startSize=15;strokeWidth=2;startFill=0;endFill=0;" parent="1" source="2dNWp42R9KnTXTzvP6k_-53" target="ddrB5zwnWM9dMD7mT3Nc-251" edge="1">
          <mxGeometry x="0.304" width="100" height="100" relative="1" as="geometry">
            <mxPoint x="2170" y="10" as="sourcePoint" />
            <mxPoint x="1913" y="130" as="targetPoint" />
            <Array as="points">
              <mxPoint x="1913" y="50" />
            </Array>
            <mxPoint as="offset" />
          </mxGeometry>
        </mxCell>
        <mxCell id="ddrB5zwnWM9dMD7mT3Nc-260" value="" style="endArrow=ERoneToMany;html=1;rounded=0;startArrow=ERmandOne;startFill=0;endFill=0;strokeWidth=2;endSize=15;startSize=15;edgeStyle=orthogonalEdgeStyle;" parent="1" source="CMmYyxB9AxRojB-h8BCf-142" target="2dNWp42R9KnTXTzvP6k_-118" edge="1">
          <mxGeometry width="50" height="50" relative="1" as="geometry">
            <mxPoint x="1490" y="360" as="sourcePoint" />
            <mxPoint x="1885" y="240" as="targetPoint" />
            <Array as="points">
              <mxPoint x="1328" y="380" />
              <mxPoint x="1640" y="380" />
            </Array>
          </mxGeometry>
        </mxCell>
        <mxCell id="ddrB5zwnWM9dMD7mT3Nc-261" value="Falls under" style="edgeLabel;html=1;align=center;verticalAlign=middle;resizable=0;points=[];" parent="ddrB5zwnWM9dMD7mT3Nc-260" vertex="1" connectable="0">
          <mxGeometry x="-0.2679" relative="1" as="geometry">
            <mxPoint x="57" as="offset" />
          </mxGeometry>
        </mxCell>
        <mxCell id="ddrB5zwnWM9dMD7mT3Nc-262" value="" style="endArrow=ERoneToMany;html=1;rounded=0;startArrow=ERmandOne;startFill=0;endFill=0;strokeWidth=2;endSize=15;startSize=15;edgeStyle=orthogonalEdgeStyle;" parent="1" source="CMmYyxB9AxRojB-h8BCf-155" target="ddrB5zwnWM9dMD7mT3Nc-251" edge="1">
          <mxGeometry width="50" height="50" relative="1" as="geometry">
            <mxPoint x="2060" y="380" as="sourcePoint" />
            <mxPoint x="2455" y="260" as="targetPoint" />
            <Array as="points">
              <mxPoint x="1758" y="370" />
              <mxPoint x="1930" y="370" />
            </Array>
          </mxGeometry>
        </mxCell>
        <mxCell id="ddrB5zwnWM9dMD7mT3Nc-263" value="Falls under" style="edgeLabel;html=1;align=center;verticalAlign=middle;resizable=0;points=[];" parent="ddrB5zwnWM9dMD7mT3Nc-262" vertex="1" connectable="0">
          <mxGeometry x="-0.2679" relative="1" as="geometry">
            <mxPoint x="35" as="offset" />
          </mxGeometry>
        </mxCell>
        <mxCell id="ddrB5zwnWM9dMD7mT3Nc-264" value="" style="edgeStyle=orthogonalEdgeStyle;fontSize=12;html=1;endArrow=ERzeroToMany;startArrow=ERmandOne;rounded=0;strokeWidth=2;endSize=15;startSize=15;" parent="1" source="CMmYyxB9AxRojB-h8BCf-18" target="ddrB5zwnWM9dMD7mT3Nc-151" edge="1">
          <mxGeometry width="100" height="100" relative="1" as="geometry">
            <mxPoint x="470" y="1530" as="sourcePoint" />
            <mxPoint x="133" y="1360" as="targetPoint" />
            <Array as="points">
              <mxPoint x="150" y="190" />
              <mxPoint x="150" y="1620" />
              <mxPoint x="1328" y="1620" />
            </Array>
          </mxGeometry>
        </mxCell>
        <mxCell id="ddrB5zwnWM9dMD7mT3Nc-286" value="&lt;font style=&quot;font-size: 15px;&quot;&gt;Writes&lt;/font&gt;" style="edgeLabel;html=1;align=center;verticalAlign=middle;resizable=0;points=[];" parent="ddrB5zwnWM9dMD7mT3Nc-264" vertex="1" connectable="0">
          <mxGeometry x="-0.304" y="-2" relative="1" as="geometry">
            <mxPoint x="-1" y="1" as="offset" />
          </mxGeometry>
        </mxCell>
      </root>
    </mxGraphModel>
  </diagram>
</mxfile>
